<svg version="1.1" xmlns="http://www.w3.org/2000/svg" xmlns:xlink="http://www.w3.org/1999/xlink" x="0px" y="0px" viewBox="0 0 240 240" style="enable-background:new 0 0 240 240;" xml:space="preserve">
<style type="text/css">
	.fill{fill:#000000;opacity:0;}
	.border{fill:#000000;}
</style>
<path class="fill" d="M177.5,202.5h-115c0-30.38-24.62-55-55-55h0v-55h0c30.38,0,55-24.62,55-55h115c0,30.38,24.62,55,55,55v55
	C202.12,147.5,177.5,172.12,177.5,202.5z"/>
<path class="border" d="M214.5,30h-37h-115h-37C11.44,30,0,41.44,0,55.5v37v55v37C0,198.56,11.44,210,25.5,210h37h115h37
	c14.06,0,25.5-11.44,25.5-25.5v-37v-55v-37C240,41.44,228.56,30,214.5,30z M225,55.5v28.9c-20.2-3.22-36.18-19.21-39.4-39.4h28.9
	C220.29,45,225,49.71,225,55.5z M25.5,45h28.9C51.18,65.2,35.2,81.18,15,84.4V55.5C15,49.71,19.71,45,25.5,45z M15,184.5v-28.9
	c20.2,3.22,36.18,19.21,39.4,39.4H25.5C19.71,195,15,190.29,15,184.5z M69.55,195c-3.42-28.48-26.07-51.13-54.55-54.55V99.55
	C43.48,96.13,66.13,73.48,69.55,45h100.89c3.42,28.48,26.07,51.13,54.55,54.55v40.89c-28.48,3.42-51.13,26.07-54.55,54.55H69.55z
	 M214.5,195h-28.9c3.22-20.2,19.21-36.18,39.4-39.4v28.9C225,190.29,220.29,195,214.5,195z M145,135c0,9.86-7.48,18.47-17.5,21.42
	v6.08c0,4.14-3.36,7.5-7.5,7.5s-7.5-3.36-7.5-7.5v-6.03c-3.9-1.07-7.75-2.97-11.5-5.71c-3.35-2.44-4.08-7.13-1.64-10.48
	c2.44-3.35,7.13-4.08,10.48-1.64c3.56,2.6,6.89,3.86,10.17,3.86c6.1,0,10-4.44,10-7.5c0-2.98,0-5.79-11.2-7.6
	c-5.89-0.95-23.8-3.84-23.8-22.4c0-9.86,7.48-18.47,17.5-21.42V77.5c0-4.14,3.36-7.5,7.5-7.5s7.5,3.36,7.5,7.5v6.03
	c3.9,1.07,7.75,2.97,11.5,5.71c3.35,2.44,4.08,7.13,1.64,10.48c-2.44,3.35-7.13,4.08-10.48,1.64c-3.56-2.6-6.89-3.86-10.16-3.86
	c-6.1,0-10,4.44-10,7.5c0,2.98,0,5.79,11.2,7.6C127.08,113.55,145,116.44,145,135z"/>
</svg>