<svg version="1.1" xmlns="http://www.w3.org/2000/svg" xmlns:xlink="http://www.w3.org/1999/xlink" x="0px" y="0px" viewBox="0 0 240 240" style="enable-background:new 0 0 240 240;" xml:space="preserve">
<style type="text/css">
	.fill{fill:#000000;opacity:0;}
	.border{fill:#000000;}
</style>
<path class="fill" d="M203.95,144.74c-8.37,28.43-30.77,50.84-59.2,59.2c-1.73-12.12-12.14-21.45-24.74-21.45
	c-12.6,0-23.02,9.32-24.74,21.45c-28.43-8.37-50.84-30.77-59.2-59.2C48.18,143.02,57.5,132.6,57.5,120s-9.32-23.02-21.45-24.74
	c8.37-28.43,30.77-50.84,59.2-59.2C96.98,48.18,107.4,57.5,120,57.5c12.6,0,23.02-9.32,24.74-21.45
	c28.43,8.37,50.84,30.77,59.2,59.2C191.82,96.98,182.5,107.4,182.5,120S191.82,143.02,203.95,144.74z"/>
<path class="border" d="M240,120c0-17.31-13.61-31.51-30.69-32.45c-9.6-26.54-30.32-47.26-56.86-56.86C151.51,13.61,137.31,0,120,0
	S88.49,13.61,87.55,30.69c-26.54,9.6-47.26,30.32-56.86,56.86C13.61,88.49,0,102.69,0,120c0,17.31,13.61,31.51,30.69,32.45
	c9.6,26.54,30.32,47.26,56.86,56.86C88.49,226.39,102.69,240,120,240s31.51-13.61,32.45-30.69c26.54-9.6,47.26-30.32,56.86-56.86
	C226.39,151.51,240,137.31,240,120z M120,15c9.65,0,17.5,7.85,17.5,17.5S129.65,50,120,50s-17.5-7.85-17.5-17.5S110.35,15,120,15z
	 M15,120c0-9.65,7.85-17.5,17.5-17.5S50,110.35,50,120s-7.85,17.5-17.5,17.5S15,129.65,15,120z M120,225
	c-9.65,0-17.5-7.85-17.5-17.5S110.35,190,120,190s17.5,7.85,17.5,17.5S129.65,225,120,225z M149.69,194.3
	C144.61,182.94,133.22,175,120,175s-24.61,7.94-29.69,19.3c-20.17-8.11-36.5-24.44-44.61-44.61C57.06,144.61,65,133.22,65,120
	c0-13.22-7.94-24.61-19.3-29.69c8.11-20.17,24.44-36.5,44.61-44.61C95.39,57.06,106.78,65,120,65s24.62-7.94,29.69-19.3
	c20.17,8.11,36.5,24.44,44.61,44.61C182.94,95.39,175,106.78,175,120c0,13.22,7.94,24.61,19.3,29.69
	C186.18,169.86,169.86,186.18,149.69,194.3z M207.5,137.5c-9.65,0-17.5-7.85-17.5-17.5s7.85-17.5,17.5-17.5S225,110.35,225,120
	S217.15,137.5,207.5,137.5z"/>
</svg>