<svg version="1.1" xmlns="http://www.w3.org/2000/svg" xmlns:xlink="http://www.w3.org/1999/xlink" x="0px" y="0px" viewBox="0 0 240 240" style="enable-background:new 0 0 240 240;" xml:space="preserve">
<style type="text/css">
	.fill{fill:#000000;opacity:0;}
	.border{fill:#000000;}
</style>
<path class="fill" d="M137.5,25c0,9.66-7.84,17.5-17.5,17.5s-17.5-7.84-17.5-17.5S110.34,7.5,120,7.5S137.5,15.34,137.5,25z
	M120,197.5c-9.66,0-17.5,7.84-17.5,17.5s7.84,17.5,17.5,17.5s17.5-7.84,17.5-17.5S129.67,197.5,120,197.5z M120,102.44
	c-9.66,0-17.5,7.84-17.5,17.5s7.84,17.5,17.5,17.5s17.5-7.84,17.5-17.5S129.67,102.44,120,102.44z M37.5,150
	c-9.66,0-17.5,7.84-17.5,17.5S27.84,185,37.5,185S55,177.16,55,167.5S47.16,150,37.5,150z M37.5,55C27.84,55,20,62.84,20,72.5
	S27.84,90,37.5,90S55,82.16,55,72.5S47.16,55,37.5,55z M202.5,150c-9.66,0-17.5,7.84-17.5,17.5s7.84,17.5,17.5,17.5
	c9.67,0,17.5-7.84,17.5-17.5S212.17,150,202.5,150z M202.5,90c9.67,0,17.5-7.84,17.5-17.5S212.17,55,202.5,55
	c-9.66,0-17.5,7.84-17.5,17.5S192.84,90,202.5,90z"/>
<path class="border" d="M210,143.65v-47.3c10.13-3.19,17.5-12.68,17.5-23.85c0-13.79-11.21-25-25-25s-25,11.21-25,25
	c0,11.17,7.37,20.66,17.5,23.85v47.3c-3.54,1.12-6.74,3-9.41,5.46l-41.19-23.72c0.39-1.75,0.6-3.58,0.6-5.45
	c0-13.79-11.21-25-25-25s-25,11.21-25,25c0,1.87,0.21,3.69,0.6,5.45l-41.19,23.72c-2.67-2.46-5.87-4.34-9.41-5.46v-47.3
	c10.13-3.19,17.5-12.68,17.5-23.85c0-1.85-0.21-3.66-0.59-5.4l41.18-23.71c4.45,4.1,10.4,6.61,16.91,6.61c13.79,0,25-11.21,25-25
	S133.79,0,120,0S95,11.21,95,25c0,1.85,0.21,3.66,0.59,5.4L54.41,54.11c-4.45-4.1-10.4-6.61-16.91-6.61c-13.79,0-25,11.21-25,25
	c0,11.17,7.37,20.66,17.5,23.85v47.3c-10.13,3.19-17.5,12.68-17.5,23.85c0,13.79,11.21,25,25,25s25-11.21,25-25
	c0-1.85-0.21-3.66-0.59-5.4l41.22-23.73c4.45,4.08,10.38,6.57,16.88,6.57c6.5,0,12.43-2.49,16.88-6.57l41.22,23.73
	c-0.38,1.74-0.59,3.54-0.59,5.4s0.21,3.66,0.59,5.4l-41.18,23.71c-4.45-4.1-10.39-6.61-16.91-6.61c-13.79,0-25,11.21-25,25
	s11.21,25,25,25s25-11.21,25-25c0-1.85-0.21-3.66-0.59-5.4l41.18-23.71c4.45,4.1,10.39,6.61,16.91,6.61c13.79,0,25-11.21,25-25
	C227.5,156.33,220.13,146.84,210,143.65z M202.5,62.5c5.51,0,10,4.49,10,10s-4.49,10-10,10s-10-4.49-10-10S196.99,62.5,202.5,62.5z
	M120,15c5.51,0,10,4.49,10,10s-4.49,10-10,10c-3.69,0-6.91-2.01-8.64-4.99c-0.01-0.01-0.01-0.02-0.01-0.03
	c-0.01-0.03-0.03-0.05-0.05-0.07c-0.82-1.45-1.3-3.13-1.3-4.91C110,19.49,114.49,15,120,15z M37.5,62.5c3.69,0,6.91,2.01,8.64,4.99
	c0.01,0.01,0.01,0.02,0.01,0.03c0.01,0.02,0.02,0.03,0.03,0.04c0.83,1.46,1.32,3.14,1.32,4.94c0,5.51-4.49,10-10,10s-10-4.49-10-10
	S31.99,62.5,37.5,62.5z M37.5,177.5c-5.51,0-10-4.49-10-10s4.49-10,10-10c3.69,0,6.91,2.01,8.64,4.99c0,0.01,0.01,0.02,0.01,0.03
	c0.01,0.01,0.02,0.03,0.03,0.04c0.83,1.46,1.32,3.14,1.32,4.94C47.5,173.01,43.01,177.5,37.5,177.5z M120,129.94
	c-3.67,0-6.87-1.99-8.61-4.95c-0.01-0.01-0.01-0.02-0.02-0.03c-0.02-0.03-0.03-0.05-0.05-0.08c-0.84-1.46-1.32-3.15-1.32-4.95
	c0-5.51,4.49-10,10-10s10,4.49,10,10c0,1.81-0.49,3.51-1.34,4.97c-0.01,0.02-0.02,0.03-0.03,0.05c0,0.01-0.01,0.01-0.01,0.02
	C126.88,127.95,123.67,129.94,120,129.94z M120,225c-5.51,0-10-4.49-10-10s4.49-10,10-10c3.69,0,6.91,2.01,8.64,4.99
	c0,0.01,0.01,0.02,0.01,0.03c0.01,0.01,0.02,0.03,0.03,0.04c0.83,1.46,1.32,3.14,1.32,4.94C130,220.51,125.51,225,120,225z
	M202.5,177.5c-3.69,0-6.91-2.01-8.64-4.99c0-0.01-0.01-0.02-0.01-0.03c-0.01-0.02-0.03-0.05-0.04-0.07
	c-0.82-1.45-1.3-3.13-1.3-4.91c0-1.8,0.48-3.48,1.32-4.94c0.01-0.01,0.02-0.03,0.03-0.04c0-0.01,0.01-0.02,0.01-0.03
	c1.73-2.98,4.95-4.99,8.64-4.99c5.51,0,10,4.49,10,10S208.01,177.5,202.5,177.5z"/>
</svg>