<svg version="1.1" xmlns="http://www.w3.org/2000/svg" xmlns:xlink="http://www.w3.org/1999/xlink" x="0px" y="0px" viewBox="0 0 240 240" style="enable-background:new 0 0 240 240;" xml:space="preserve">
<style type="text/css">
	.fill{fill:#000000;opacity:0;}
	.border{fill:#000000;}
</style>
<path class="fill" d="M162.5,182.5l0,27.5c0,12.43-10.07,22.5-22.5,22.5H60c-12.43,0-22.5-10.07-22.5-22.5v-27.5H162.5z M190,42.5
	H90c-6.9,0-12.5,5.6-12.5,12.5v65c0,6.9,5.6,12.5,12.5,12.5h12.5l17.5,20l17.5-20H190c6.9,0,12.5-5.6,12.5-12.5V55
	C202.5,48.1,196.9,42.5,190,42.5z"/>
<path class="border" d="M162.5,150c-4.14,0-7.5,3.36-7.5,7.5V175H45V30c0-8.27,6.73-15,15-15h80c5.02,0,9.68,2.49,12.48,6.67
	c2.3,3.44,6.96,4.36,10.4,2.06c3.44-2.3,4.36-6.96,2.06-10.4C159.35,4.98,150.03,0,140,0H60C43.46,0,30,13.46,30,30v180
	c0,16.54,13.46,30,30,30h80c16.54,0,30-13.46,30-30v-52.5C170,153.36,166.64,150,162.5,150z M140,225H60c-8.27,0-15-6.73-15-15v-20
	h110v20C155,218.27,148.27,225,140,225z M120,207.5c0,4.14-3.36,7.5-7.5,7.5h-25c-4.14,0-7.5-3.36-7.5-7.5s3.36-7.5,7.5-7.5h25
	C116.64,200,120,203.36,120,207.5z M190,35H90c-11.03,0-20,8.97-20,20v65c0,11.03,8.97,20,20,20h9.1l15.26,17.44
	c1.42,1.63,3.48,2.56,5.64,2.56s4.22-0.93,5.64-2.56L140.9,140H190c11.03,0,20-8.97,20-20V55C210,43.97,201.03,35,190,35z M195,120
	c0,2.76-2.24,5-5,5h-52.5c-2.16,0-4.22,0.93-5.64,2.56L120,141.11l-11.86-13.55c-1.42-1.63-3.48-2.56-5.64-2.56H90
	c-2.76,0-5-2.24-5-5V55c0-2.76,2.24-5,5-5h100c2.76,0,5,2.24,5,5V120z M155,102.5c0,4.14-3.36,7.5-7.5,7.5h-35
	c-4.14,0-7.5-3.36-7.5-7.5s3.36-7.5,7.5-7.5h35C151.64,95,155,98.36,155,102.5z M175,72.5c0,4.14-3.36,7.5-7.5,7.5h-55
	c-4.14,0-7.5-3.36-7.5-7.5s3.36-7.5,7.5-7.5h55C171.64,65,175,68.36,175,72.5z"/>
</svg>