<svg version="1.1" xmlns="http://www.w3.org/2000/svg" xmlns:xlink="http://www.w3.org/1999/xlink" x="0px" y="0px" viewBox="0 0 240 240" style="enable-background:new 0 0 240 240;" xml:space="preserve">
<style type="text/css">
	.fill{fill:#000000;opacity:0;}
	.border{fill:#000000;}
</style>
<path class="fill" d="M37.5,147.5h55l0,65l-55,0L37.5,147.5z M147.5,107.5l0,105l55,0v-105H147.5z"/>
<path class="border" d="M232.5,205H210v-97.5c0-4.14-3.36-7.5-7.5-7.5h-55c-4.14,0-7.5,3.36-7.5,7.5V205h-40v-57.5c0-4.14-3.36-7.5-7.5-7.5h-55
	c-4.14,0-7.5,3.36-7.5,7.5V205H7.5c-4.14,0-7.5,3.36-7.5,7.5s3.36,7.5,7.5,7.5h225c4.14,0,7.5-3.36,7.5-7.5S236.64,205,232.5,205z
	 M155,115h40v90h-40V115z M45,155h40v50H45V155z M72.2,117.8c-2.93-2.93-2.93-7.68,0-10.61l72.2-72.2H120c-4.14,0-7.5-3.36-7.5-7.5
	s3.36-7.5,7.5-7.5h42.5c0.03,0,0.06,0,0.09,0c0.22,0,0.43,0.01,0.65,0.03c0.12,0.01,0.24,0.03,0.36,0.05
	c0.12,0.02,0.24,0.03,0.36,0.06c0.13,0.03,0.26,0.06,0.39,0.1c0.11,0.03,0.21,0.05,0.32,0.08c0.13,0.04,0.25,0.09,0.37,0.13
	c0.11,0.04,0.21,0.07,0.32,0.12c0.12,0.05,0.23,0.1,0.34,0.16c0.11,0.05,0.22,0.1,0.33,0.16c0.11,0.06,0.21,0.12,0.31,0.19
	c0.11,0.06,0.21,0.12,0.32,0.19c0.11,0.08,0.22,0.16,0.33,0.24c0.09,0.07,0.18,0.13,0.26,0.19c0.18,0.15,0.35,0.31,0.52,0.47
	c0.01,0.01,0.02,0.02,0.03,0.03c0.01,0.01,0.02,0.03,0.03,0.04c0.16,0.16,0.32,0.33,0.46,0.51c0.08,0.09,0.14,0.19,0.21,0.29
	c0.07,0.1,0.15,0.2,0.22,0.3c0.07,0.11,0.14,0.23,0.21,0.34c0.06,0.1,0.12,0.19,0.17,0.29c0.06,0.12,0.11,0.24,0.17,0.35
	c0.05,0.1,0.1,0.21,0.14,0.31c0.05,0.12,0.09,0.23,0.13,0.35c0.04,0.11,0.08,0.22,0.12,0.34c0.04,0.12,0.06,0.24,0.09,0.36
	c0.03,0.12,0.06,0.23,0.09,0.35c0.03,0.14,0.05,0.28,0.07,0.43c0.01,0.1,0.03,0.2,0.04,0.3c0.02,0.25,0.04,0.5,0.04,0.75V70
	c0,4.14-3.36,7.5-7.5,7.5S155,74.14,155,70V45.61l-72.2,72.2c-1.46,1.46-3.38,2.2-5.3,2.2S73.66,119.27,72.2,117.8z"/>
</svg>