<svg version="1.1" xmlns="http://www.w3.org/2000/svg" xmlns:xlink="http://www.w3.org/1999/xlink" x="0px" y="0px" viewBox="0 0 240 240" style="enable-background:new 0 0 240 240;" xml:space="preserve">
<style type="text/css">
	.fill{fill:#000000;opacity:0;}
	.border{fill:#000000;}
</style>
<path class="fill" d="M232.5,152.5v25h-89.61c-8.05-21.05-25.96-37.21-48.08-42.84c0.77-2.94,1.74-5.79,2.87-8.56
	c7.23-5.11,12.43-12.88,14.18-21.88C124.6,90.84,142.57,82.5,162.5,82.5C201.16,82.5,232.5,113.84,232.5,152.5z M197.5,47.5
	c0-19.33-15.67-35-35-35s-35,15.67-35,35s15.67,35,35,35S197.5,66.83,197.5,47.5z"/>
<path class="border" d="M189.85,80C199.1,72.2,205,60.53,205,47.5C205,24.07,185.93,5,162.5,5S120,24.07,120,47.5c0,13.01,5.88,24.66,15.11,32.46
	c-5.67,2.14-11.07,4.95-16.11,8.4C114.8,69.3,97.79,55,77.5,55C54.07,55,35,74.07,35,97.5c0,13.03,5.9,24.7,15.15,32.5
	C20.88,141.08,0,169.39,0,202.5v25c0,4.14,3.36,7.5,7.5,7.5h140c4.14,0,7.5-3.36,7.5-7.5v-25c0-6.02-0.71-11.87-2.02-17.5h79.52
	c4.14,0,7.5-3.36,7.5-7.5v-25C240,119.39,219.12,91.08,189.85,80z M135,47.5c0-15.16,12.34-27.5,27.5-27.5S190,32.34,190,47.5
	S177.66,75,162.5,75S135,62.66,135,47.5z M50,97.5C50,82.34,62.34,70,77.5,70S105,82.34,105,97.5S92.66,125,77.5,125
	S50,112.66,50,97.5z M140,220H15v-17.5c0-34.46,28.04-62.5,62.5-62.5s62.5,28.04,62.5,62.5V220z M225,170h-77.17
	c-8.51-18.34-23.97-32.8-42.98-40c6.69-5.64,11.62-13.29,13.84-22.02C130.46,96.38,145.93,90,162.5,90
	c34.46,0,62.5,28.04,62.5,62.5V170z"/>
</svg>