<svg version="1.1" xmlns="http://www.w3.org/2000/svg" xmlns:xlink="http://www.w3.org/1999/xlink" x="0px" y="0px" viewBox="0 0 240 240" style="enable-background:new 0 0 240 240;" xml:space="preserve">
<style type="text/css">
	.fill{fill:#000000;opacity:0;}
	.border{fill:#000000;}
</style>
<path class="fill" d="M37.5,62.5v-15c0-5.52,4.48-10,10-10h15c5.52,0,10,4.48,10,10v15c0,5.52-4.48,10-10,10h-15
	C41.98,72.5,37.5,68.02,37.5,62.5z M62.5,102.5h-15c-5.52,0-10,4.48-10,10v15c0,5.52,4.48,10,10,10h15c5.52,0,10-4.48,10-10v-15
	C72.5,106.98,68.02,102.5,62.5,102.5z M62.5,167.5h-15c-5.52,0-10,4.48-10,10v15c0,5.52,4.48,10,10,10h15c5.52,0,10-4.48,10-10v-15
	C72.5,171.98,68.02,167.5,62.5,167.5z M192.5,37.5h-80c-5.52,0-10,4.48-10,10v15c0,5.52,4.48,10,10,10h80c5.52,0,10-4.48,10-10v-15
	C202.5,41.98,198.02,37.5,192.5,37.5z M192.5,167.5h-80c-5.52,0-10,4.48-10,10v15c0,5.52,4.48,10,10,10h80c5.52,0,10-4.48,10-10
	v-15C202.5,171.98,198.02,167.5,192.5,167.5z M192.5,102.5h-80c-5.52,0-10,4.48-10,10v15c0,5.52,4.48,10,10,10h80
	c5.52,0,10-4.48,10-10v-15C202.5,106.98,198.02,102.5,192.5,102.5z"/>
<path class="border" d="M62.5,30h-15C37.85,30,30,37.85,30,47.5v15C30,72.15,37.85,80,47.5,80h15C72.15,80,80,72.15,80,62.5v-15
	C80,37.85,72.15,30,62.5,30z M65,62.5c0,1.38-1.12,2.5-2.5,2.5h-15c-1.38,0-2.5-1.12-2.5-2.5v-15c0-1.38,1.12-2.5,2.5-2.5h15
	c1.38,0,2.5,1.12,2.5,2.5V62.5z M62.5,95h-15c-9.65,0-17.5,7.85-17.5,17.5v15c0,9.65,7.85,17.5,17.5,17.5h15
	c9.65,0,17.5-7.85,17.5-17.5v-15C80,102.85,72.15,95,62.5,95z M65,127.5c0,1.38-1.12,2.5-2.5,2.5h-15c-1.38,0-2.5-1.12-2.5-2.5v-15
	c0-1.38,1.12-2.5,2.5-2.5h15c1.38,0,2.5,1.12,2.5,2.5V127.5z M62.5,160h-15c-9.65,0-17.5,7.85-17.5,17.5v15
	c0,9.65,7.85,17.5,17.5,17.5h15c9.65,0,17.5-7.85,17.5-17.5v-15C80,167.85,72.15,160,62.5,160z M65,192.5c0,1.38-1.12,2.5-2.5,2.5
	h-15c-1.38,0-2.5-1.12-2.5-2.5v-15c0-1.38,1.12-2.5,2.5-2.5h15c1.38,0,2.5,1.12,2.5,2.5V192.5z M192.5,30h-80
	C102.85,30,95,37.85,95,47.5v15c0,9.65,7.85,17.5,17.5,17.5h80c9.65,0,17.5-7.85,17.5-17.5v-15C210,37.85,202.15,30,192.5,30z
	 M195,62.5c0,1.38-1.12,2.5-2.5,2.5h-80c-1.38,0-2.5-1.12-2.5-2.5v-15c0-1.38,1.12-2.5,2.5-2.5h80c1.38,0,2.5,1.12,2.5,2.5V62.5z
	 M192.5,95h-80c-9.65,0-17.5,7.85-17.5,17.5v15c0,9.65,7.85,17.5,17.5,17.5h80c9.65,0,17.5-7.85,17.5-17.5v-15
	C210,102.85,202.15,95,192.5,95z M195,127.5c0,1.38-1.12,2.5-2.5,2.5h-80c-1.38,0-2.5-1.12-2.5-2.5v-15c0-1.38,1.12-2.5,2.5-2.5h80
	c1.38,0,2.5,1.12,2.5,2.5V127.5z M192.5,160h-80c-9.65,0-17.5,7.85-17.5,17.5v15c0,9.65,7.85,17.5,17.5,17.5h80
	c9.65,0,17.5-7.85,17.5-17.5v-15C210,167.85,202.15,160,192.5,160z M195,192.5c0,1.38-1.12,2.5-2.5,2.5h-80
	c-1.38,0-2.5-1.12-2.5-2.5v-15c0-1.38,1.12-2.5,2.5-2.5h80c1.38,0,2.5,1.12,2.5,2.5V192.5z"/>
</svg>