<svg version="1.1" xmlns="http://www.w3.org/2000/svg" xmlns:xlink="http://www.w3.org/1999/xlink" x="0px" y="0px" viewBox="0 0 240 240" style="enable-background:new 0 0 240 240;" xml:space="preserve">
<style type="text/css">
	.fill{fill:#000000;opacity:0;}
	.border{fill:#000000;}
</style>
<path class="fill" d="M202.5,232.5h-165l0-225H155l0,47.5h47.5L202.5,232.5z"/>
<path class="border" d="M209.96,54.25c-0.02-0.18-0.05-0.36-0.08-0.54c-0.01-0.06-0.02-0.13-0.03-0.19c-0.04-0.21-0.1-0.42-0.16-0.63
	c-0.01-0.03-0.01-0.05-0.02-0.08c-0.06-0.21-0.14-0.41-0.22-0.62c-0.01-0.02-0.02-0.05-0.03-0.07c-0.08-0.19-0.17-0.37-0.26-0.55
	c-0.02-0.04-0.03-0.07-0.05-0.11c-0.09-0.16-0.19-0.32-0.28-0.48c-0.03-0.05-0.06-0.11-0.09-0.16c-0.1-0.15-0.2-0.28-0.31-0.42
	c-0.04-0.06-0.08-0.11-0.13-0.17c-0.14-0.17-0.29-0.33-0.44-0.49c-0.02-0.02-0.03-0.04-0.05-0.06L160.3,2.2
	c-0.01-0.01-0.03-0.03-0.05-0.04c-0.16-0.16-0.32-0.31-0.5-0.45c-0.05-0.04-0.1-0.07-0.15-0.11c-0.15-0.11-0.29-0.23-0.45-0.33
	c-0.04-0.03-0.09-0.05-0.13-0.08c-0.16-0.11-0.33-0.21-0.5-0.3c-0.03-0.02-0.06-0.03-0.09-0.05c-0.19-0.1-0.38-0.19-0.57-0.27
	c-0.02-0.01-0.04-0.01-0.06-0.02c-0.2-0.08-0.41-0.16-0.63-0.22c-0.03-0.01-0.05-0.01-0.08-0.02c-0.21-0.06-0.42-0.12-0.63-0.16
	c-0.06-0.01-0.12-0.02-0.18-0.03c-0.18-0.03-0.36-0.06-0.55-0.08C155.5,0.01,155.25,0,155,0H37.5C33.36,0,30,3.36,30,7.5v225
	c0,4.14,3.36,7.5,7.5,7.5h165c4.14,0,7.5-3.36,7.5-7.5V55C210,54.75,209.99,54.5,209.96,54.25z M162.5,25.61l21.89,21.89H162.5
	V25.61z M45,225V15h102.5v40c0,4.14,3.36,7.5,7.5,7.5h40V225H45z M180,87.5c0,4.14-3.36,7.5-7.5,7.5h-105c-4.14,0-7.5-3.36-7.5-7.5
	s3.36-7.5,7.5-7.5h105C176.64,80,180,83.36,180,87.5z M180,119.94c0,4.14-3.36,7.5-7.5,7.5h-105c-4.14,0-7.5-3.36-7.5-7.5
	s3.36-7.5,7.5-7.5h105C176.64,112.44,180,115.8,180,119.94z M180,152.5c0,4.14-3.36,7.5-7.5,7.5h-105c-4.14,0-7.5-3.36-7.5-7.5
	s3.36-7.5,7.5-7.5h105C176.64,145,180,148.36,180,152.5z M120,185.06c0,4.14-3.36,7.5-7.5,7.5h-45c-4.14,0-7.5-3.36-7.5-7.5
	s3.36-7.5,7.5-7.5h45C116.64,177.56,120,180.91,120,185.06z"/>
</svg>