<svg version="1.1" xmlns="http://www.w3.org/2000/svg" xmlns:xlink="http://www.w3.org/1999/xlink" x="0px" y="0px" viewBox="0 0 240 240" style="enable-background:new 0 0 240 240;" xml:space="preserve">
<style type="text/css">
	.fill{fill:#000000;opacity:0;}
	.border{fill:#000000;}
</style>
<path class="fill" d="M214.5,27.5h-189c-4.4,0-8,3.6-8,8v129c0,4.4,3.6,8,8,8h189c4.4,0,8-3.6,8-8v-129
	C222.5,31.1,218.9,27.5,214.5,27.5z M97.5,132.5v-65l55,32.52L97.5,132.5z"/>
<path class="border" d="M214.5,20h-189C16.95,20,10,26.95,10,35.5v129c0,8.55,6.95,15.5,15.5,15.5h64.89l-6.25,25H77.5c-4.14,0-7.5,3.36-7.5,7.5
	s3.36,7.5,7.5,7.5h12.47c0.01,0,0.02,0,0.03,0c0.01,0,0.02,0,0.02,0h59.94c0.01,0,0.02,0,0.02,0c0.01,0,0.02,0,0.03,0h12.47
	c4.14,0,7.5-3.36,7.5-7.5s-3.36-7.5-7.5-7.5h-6.64l-6.25-25h64.89c8.55,0,15.5-6.95,15.5-15.5v-129C230,26.95,223.05,20,214.5,20z
	 M140.39,205H99.61l6.25-25h28.29L140.39,205z M215,164.5c0,0.26-0.24,0.5-0.5,0.5h-189c-0.26,0-0.5-0.24-0.5-0.5v-129
	c0-0.26,0.24-0.5,0.5-0.5h189c0.26,0,0.5,0.24,0.5,0.5V164.5z M156.32,93.56l-55-32.52c-2.32-1.37-5.2-1.39-7.53-0.06
	C91.44,62.32,90,64.81,90,67.5v65c0,2.69,1.44,5.18,3.78,6.51c1.15,0.66,2.44,0.99,3.72,0.99c1.32,0,2.64-0.35,3.81-1.04l55-32.48
	c2.28-1.35,3.69-3.8,3.69-6.46S158.6,94.91,156.32,93.56z M105,119.36V80.65l32.76,19.37L105,119.36z"/>
</svg>