<svg version="1.1" xmlns="http://www.w3.org/2000/svg" xmlns:xlink="http://www.w3.org/1999/xlink" x="0px" y="0px" viewBox="0 0 240 240" style="enable-background:new 0 0 240 240;" xml:space="preserve">
<style type="text/css">
	.fill{fill:#000000;opacity:0;}
	.border{fill:#000000;}
</style>
<path class="fill" d="M232.5,120c0,62.1-50.4,112.5-112.5,112.5S7.5,182.1,7.5,120S57.9,7.5,120,7.5S232.5,57.9,232.5,120z"/>
<path class="border" d="M120,240C53.8,240,0,186.2,0,120C0,53.8,53.8,0,120,0s120,53.8,120,120C240,186.2,186.2,240,120,240z M120,15
C62.1,15,15,62.1,15,120c0,57.9,47.1,105,105,105s105-47.1,105-105C225,62.1,177.9,15,120,15z M167.8,167.8c2.9-2.9,2.9-7.7,0-10.6
l-40.3-40.3V57.5c0-4.1-3.4-7.5-7.5-7.5s-7.5,3.4-7.5,7.5V120c0,2,0.8,3.9,2.2,5.3l42.5,42.5c1.5,1.5,3.4,2.2,5.3,2.2
S166.3,169.3,167.8,167.8z"/>
</svg>