<?xml version="1.0" encoding="utf-8"?>
<!-- Generator: Adobe Illustrator 26.0.2, SVG Export Plug-In . SVG Version: 6.00 Build 0)  -->
<svg version="1.1" id="Layer_1" xmlns="http://www.w3.org/2000/svg" xmlns:xlink="http://www.w3.org/1999/xlink" x="0px" y="0px"
	 viewBox="0 0 2131.6 500" style="enable-background:new 0 0 2131.6 500;" xml:space="preserve">
<style type="text/css">
	.st0{fill:#FFFFFF;}
	.st1{fill:#111111;}
</style>
<g id="Layer_2_00000164472173915259615900000013860111760843824035_">
	<g id="logo">
		<path class="st0" d="M1574.7,94.8c-9.9-0.2-18,7.6-18.2,17.4c0,0.3,0,0.5,0,0.8c0,10.6,7.7,18.6,18.2,18.6s18.2-8,18.2-18.6
			c0.2-9.9-7.6-18-17.5-18.2C1575.3,94.8,1575,94.8,1574.7,94.8z"/>
		<path class="st0" d="M1342.2,94.8c-9.9-0.2-18,7.6-18.2,17.4c0,0.3,0,0.5,0,0.8c0,10.6,7.7,18.6,18.2,18.6s18.2-8,18.2-18.6
			c0.2-9.9-7.6-18-17.5-18.2C1342.7,94.8,1342.4,94.8,1342.2,94.8z"/>
		<path class="st0" d="M670.5,157.9c-51.4,0-91.2,40.2-91.2,91.9c0,52.9,40.2,92.3,93.4,92.3c27.9,0,53.2-10.8,70.3-30.5l-21.6-22
			c-11.5,14.1-29,20.8-48.8,20.8c-31.6,0-54-18.6-59.2-48H752c1.3-5.9,1.9-11.9,1.9-17.9C753.8,194.4,718.8,157.9,670.5,157.9z
			 M613.5,234.6c5.2-27.9,26.4-45.8,56.2-45.8c29,0,47.6,17.1,51.4,45.8H613.5z"/>
		<path class="st0" d="M995,157.9c-25.7,0-47.6,11.9-59.9,31.6c-11.5-20.1-32.8-31.6-58-31.6c-22,0-40.9,8.9-53.2,24.6v-24.6h-33.6
			v184.2h33.5V231.2h0.4c0-26.1,19-42.1,43.5-42.1c24.2,0,42.4,16,42.4,42.4v110.5h33.5V224.5c3-22,20.8-35.4,43.2-35.4
			c24.2,0,42.4,16,42.4,42.4v110.5h33.5V224.9C1062.7,183.6,1032.5,157.9,995,157.9z"/>
		<path class="st0" d="M1201.5,157.9c-24.9,0-46.5,10.8-59.6,28.3v-28.3h-33.5V421h33.5V314.2c13,17.5,34.2,27.9,59.6,27.9
			c48.4,0,85.6-40.2,85.6-91.9C1287.1,198.1,1249.9,157.9,1201.5,157.9z M1195.9,310.5c-33.1,0-55.8-24.9-55.8-60.3
			c0-35.7,22.7-60.7,56.2-60.7c33.1,0,56.6,24.9,56.6,60.3C1252.8,285.5,1229.4,310.5,1195.9,310.5z"/>
		<rect x="1325.4" y="157.9" class="st0" width="33.5" height="184.2"/>
		<rect x="1558" y="157.9" class="st0" width="33.5" height="184.2"/>
		<path class="st0" d="M1489.9,157.9c-21.6,0-38,8.9-48,24.6v-24.6h-33.5v184.2h33.5V237.5c0-32,17.5-48,42.4-48
			c11.5,0,20.1,3.4,27.9,11.2l22-22.7C1521.9,163.9,1507.8,157.9,1489.9,157.9z"/>
		<path class="st0" d="M1717.6,190.3c18.6,0,34.6,6.7,45.8,19.7l22.3-22.3c-16.7-19-40.9-29.8-68.1-29.8
			c-52.1,0-92.3,40.2-92.3,91.9c0,52.1,40.2,92.3,92.3,92.3c27.2,0,51.7-10.8,68.1-29.8l-22-22.3c-11.2,13-27.2,19.7-46.2,19.7
			c-33.5,0-57.7-24.9-57.7-59.9S1684.1,190.3,1717.6,190.3z"/>
		<path class="st0" d="M1935,262.8c0,29.4-15.6,46.9-42,46.9s-42.4-17.9-42.4-46.9V157.9h-33.5v106.4c0,45.8,31.3,77.8,75.9,77.8
			s75.5-31.6,75.5-77.8V157.9H1935V262.8z"/>
		<path class="st0" d="M2037,207.4c0-11.5,10.4-19,29.8-19c18.6,0,33.1,7.1,43.2,20.1l21.6-21.6c-14.1-19-36.1-29-63.6-29
			c-39.1,0-63.3,20.1-63.3,52.1c0,64.4,94.9,42.4,94.9,81.1c0,13-11.9,20.5-32.8,20.5s-38-7.4-50.6-23.5l-21.6,21.6
			c16.4,20.5,42.1,32.4,71.8,32.4c39.8,0,65.1-20.8,65.1-54C2131.6,222.3,2037,242.4,2037,207.4z"/>
		<path class="st0" d="M450,0H50C22.4,0,0,22.4,0,50v400c0,27.6,22.4,50,50,50h400c27.6,0,50-22.4,50-50V50C500,22.4,477.6,0,450,0z
			 M396.6,338.1c-48.7,81-153.8,107.1-234.7,58.4S54.8,242.8,103.4,161.8s153.8-107.1,234.7-58.4c24,14.4,44,34.5,58.4,58.4
			c0.8,1.4,0.4,3.3-1,4.1c0,0,0,0,0,0l-40.4,23.3c-1.4,0.8-3.1,0.3-4-1c-21.5-35.2-59.7-56.7-100.9-56.7
			c-64.5-0.1-117.7,52.2-118.6,116.7c0,0.6,0,1.1,0,1.7s0,1.1,0,1.7c0.9,64.5,54.1,116.9,118.6,116.7c41.2-0.1,79.4-21.5,100.9-56.7
			c0.9-1.3,2.6-1.8,4-1l40.4,23.3C397,334.8,397.5,336.7,396.6,338.1C396.6,338.1,396.6,338.1,396.6,338.1z M419.4,273.8
			c-0.2,1.5-1.5,2.6-3,2.6H188.8c-1.5,0-2.8-1.1-3-2.6c-2.2-15.8-2.2-31.7,0-47.5c0.2-1.5,1.5-2.6,3-2.6h227.6c1.5,0,2.8,1.1,3,2.6
			C421.6,242,421.6,258,419.4,273.8L419.4,273.8z"/>
		<path class="st1" d="M421,250c0,7.9-0.5,15.9-1.6,23.8c-0.2,1.5-1.5,2.6-3,2.6H188.8c-1.5,0-2.8-1.1-3-2.6
			c-2.2-15.8-2.2-31.7,0-47.5c0.2-1.5,1.5-2.6,3-2.6h227.6c1.5,0,2.8,1.1,3,2.6C420.5,234.1,421.1,242.1,421,250z"/>
		<path class="st1" d="M396.6,338.1c-48.7,81-153.8,107.1-234.7,58.4S54.8,242.8,103.4,161.8s153.8-107.1,234.7-58.4
			c24,14.4,44,34.5,58.4,58.4c0.8,1.4,0.4,3.3-1,4.1c0,0,0,0,0,0l-40.4,23.3c-1.4,0.8-3.1,0.3-4-1c-21.5-35.2-59.7-56.7-100.9-56.7
			c-64.5-0.1-117.7,52.2-118.6,116.7c0,0.6,0,1.1,0,1.7s0,1.1,0,1.7c0.9,64.5,54.1,116.9,118.6,116.7c41.2-0.1,79.4-21.5,100.9-56.7
			c0.9-1.3,2.6-1.8,4-1l40.4,23.3C397,334.8,397.5,336.7,396.6,338.1C396.6,338.1,396.6,338.1,396.6,338.1z"/>
	</g>
</g>
</svg>
