<?xml version="1.0" encoding="utf-8"?>
<!-- Generator: Adobe Illustrator 25.2.3, SVG Export Plug-In . SVG Version: 6.00 Build 0)  -->
<svg version="1.1" id="Camada_1" xmlns="http://www.w3.org/2000/svg" xmlns:xlink="http://www.w3.org/1999/xlink" x="0px" y="0px"
	 viewBox="0 0 100 100" style="enable-background:new 0 0 100 100;" xml:space="preserve">
<style type="text/css">
	.st0{fill:#FFFFFF;}
</style>
<g>
	<path class="st0" d="M26.6,99.8c-2.1,0-4.3-0.5-6.3-1.5c-4.9-2.4-7.9-7.3-7.9-12.7V14.3c0-5.4,3-10.3,7.9-12.7S30.8-0.3,35.2,3
		l46.9,35.7c3.6,2.7,5.6,6.8,5.6,11.3s-2,8.6-5.6,11.3l-47,35.6C32.6,98.8,29.6,99.8,26.6,99.8z M26.6,8.1c-0.9,0-1.9,0.2-2.8,0.7
		c-2.1,1-3.4,3.1-3.4,5.5v71.3c0,2.4,1.3,4.5,3.4,5.5c2.1,1.1,4.6,0.8,6.5-0.6l46.9-35.7c1.5-1.2,2.4-3,2.4-4.9s-0.9-3.7-2.4-4.9
		L30.3,9.4C29.2,8.5,27.9,8.1,26.6,8.1z"/>
</g>
</svg>
