<svg xmlns="http://www.w3.org/2000/svg" xmlns:xlink="http://www.w3.org/1999/xlink" width="700" zoomAndPan="magnify" viewBox="0 0 525 150.749998" height="201" preserveAspectRatio="xMidYMid meet" version="1.0"><defs><g/><clipPath id="96e4f1d13a"><path d="M 8.359375 8 L 145.382812 8 L 145.382812 146.425781 L 8.359375 146.425781 Z M 8.359375 8 " clip-rule="nonzero"/></clipPath></defs><g fill="#d9d9d9" fill-opacity="1"><g transform="translate(173.377461, 114.078709)"><g><path d="M 29.265625 1.21875 C 23.710938 1.21875 18.894531 0.117188 14.8125 -2.078125 C 10.726562 -4.285156 7.582031 -7.347656 5.375 -11.265625 C 3.175781 -15.179688 2.078125 -19.710938 2.078125 -24.859375 C 2.078125 -26.003906 2.140625 -27.109375 2.265625 -28.171875 C 2.390625 -29.234375 2.53125 -30.332031 2.6875 -31.46875 L 6.25 -31.46875 C 6.082031 -30.40625 5.957031 -29.382812 5.875 -28.40625 C 5.789062 -27.425781 5.75 -26.445312 5.75 -25.46875 C 5.75 -18.695312 7.875 -13.1875 12.125 -8.9375 C 16.375 -4.695312 22.332031 -2.578125 30 -2.578125 C 35.394531 -2.578125 40.519531 -3.65625 45.375 -5.8125 C 50.226562 -7.976562 54.367188 -11.179688 57.796875 -15.421875 C 61.234375 -19.671875 63.484375 -24.941406 64.546875 -31.234375 L 73.484375 -81.9375 L 38.828125 -81.9375 L 39.4375 -85.734375 L 78.015625 -85.734375 L 68.453125 -31.234375 C 67.234375 -24.367188 64.679688 -18.507812 60.796875 -13.65625 C 56.921875 -8.800781 52.226562 -5.109375 46.71875 -2.578125 C 41.207031 -0.046875 35.390625 1.21875 29.265625 1.21875 Z M 29.265625 1.21875 "/></g></g></g><g fill="#d9d9d9" fill-opacity="1"><g transform="translate(258.98342, 114.078709)"><g><path d="M 43.59375 1.21875 C 35.4375 1.21875 28.679688 -0.515625 23.328125 -3.984375 C 17.984375 -7.453125 14.023438 -12 11.453125 -17.625 C 8.878906 -23.257812 7.59375 -29.304688 7.59375 -35.765625 C 7.59375 -41.554688 8.65625 -47.453125 10.78125 -53.453125 C 12.90625 -59.453125 16.109375 -64.960938 20.390625 -69.984375 C 24.679688 -75.003906 30.050781 -79.066406 36.5 -82.171875 C 42.945312 -85.273438 50.457031 -86.828125 59.03125 -86.828125 C 67.351562 -86.828125 74.1875 -85.234375 79.53125 -82.046875 C 84.882812 -78.867188 88.828125 -74.625 91.359375 -69.3125 C 93.890625 -64.007812 95.15625 -58.171875 95.15625 -51.796875 C 95.15625 -48.941406 94.910156 -45.960938 94.421875 -42.859375 C 93.441406 -37.222656 91.582031 -31.769531 88.84375 -26.5 C 86.113281 -21.238281 82.5625 -16.523438 78.1875 -12.359375 C 73.820312 -8.203125 68.738281 -4.898438 62.9375 -2.453125 C 57.144531 -0.00390625 50.695312 1.21875 43.59375 1.21875 Z M 44.21875 -2.578125 C 50.664062 -2.578125 56.519531 -3.695312 61.78125 -5.9375 C 67.050781 -8.1875 71.6875 -11.207031 75.6875 -15 C 79.6875 -18.800781 82.929688 -23.109375 85.421875 -27.921875 C 87.910156 -32.742188 89.601562 -37.722656 90.5 -42.859375 C 90.832031 -44.410156 91.054688 -45.921875 91.171875 -47.390625 C 91.296875 -48.859375 91.359375 -50.289062 91.359375 -51.6875 C 91.359375 -57.476562 90.175781 -62.738281 87.8125 -67.46875 C 85.445312 -72.207031 81.832031 -75.984375 76.96875 -78.796875 C 72.113281 -81.617188 65.890625 -83.03125 58.296875 -83.03125 C 50.867188 -83.03125 44.253906 -81.679688 38.453125 -78.984375 C 32.660156 -76.296875 27.78125 -72.707031 23.8125 -68.21875 C 19.851562 -63.726562 16.832031 -58.726562 14.75 -53.21875 C 12.675781 -47.707031 11.640625 -42.175781 11.640625 -36.625 C 11.640625 -32.207031 12.25 -27.976562 13.46875 -23.9375 C 14.695312 -19.894531 16.613281 -16.257812 19.21875 -13.03125 C 21.832031 -9.8125 25.203125 -7.265625 29.328125 -5.390625 C 33.453125 -3.515625 38.414062 -2.578125 44.21875 -2.578125 Z M 44.21875 -2.578125 "/></g></g></g><g fill="#d9d9d9" fill-opacity="1"><g transform="translate(363.816976, 114.078709)"><g><path d="M 41.640625 -81.9375 L 9.546875 -81.9375 L 10.171875 -85.734375 L 78.375 -85.734375 L 77.765625 -81.9375 L 45.5625 -81.9375 L 31.109375 0 L 27.1875 0 Z M 41.640625 -81.9375 "/></g></g></g><g fill="#d9d9d9" fill-opacity="1"><g transform="translate(439.870367, 114.078709)"><g><path d="M 51.5625 -85.734375 L 56.21875 -85.734375 L 79.609375 0 L 75.6875 0 L 69.4375 -22.296875 L 16.171875 -22.296875 L 2.453125 0 L -1.953125 0 Z M 68.453125 -26.078125 L 53.390625 -82.171875 L 18.375 -26.078125 Z M 68.453125 -26.078125 "/></g></g></g><g clip-path="url(#96e4f1d13a)"><path fill="#919191" d="M 145.152344 19.917969 C 145.167969 19.714844 145.109375 19.53125 144.980469 19.371094 C 144.855469 19.207031 144.6875 19.113281 144.488281 19.078125 C 144.003906 18.957031 143.757812 19.246094 143.589844 19.636719 C 143.488281 19.875 143.414062 20.125 143.320312 20.367188 C 143.027344 21.121094 142.78125 21.894531 142.425781 22.617188 C 140.570312 26.367188 137.757812 28.964844 133.558594 29.855469 C 131.441406 30.285156 129.320312 30.308594 127.191406 29.929688 C 124.285156 29.441406 121.40625 28.84375 118.667969 27.722656 C 116.953125 26.988281 115.164062 26.570312 113.300781 26.464844 C 112.738281 26.441406 112.230469 26.273438 111.769531 25.953125 C 111.179688 25.570312 110.566406 25.226562 109.929688 24.929688 C 107.902344 23.964844 105.828125 23.785156 103.738281 24.710938 C 103.039062 25.015625 102.40625 25.101562 101.773438 24.605469 C 101.714844 24.558594 101.636719 24.539062 101.570312 24.496094 C 101.339844 24.335938 101.113281 24.171875 100.882812 24.011719 C 101.078125 23.785156 101.300781 23.585938 101.546875 23.417969 C 103.675781 22.375 105.789062 21.300781 107.957031 20.355469 C 111.117188 18.976562 114.242188 17.566406 116.921875 15.335938 C 118.8125 13.777344 120.371094 11.9375 121.59375 9.816406 C 122.042969 9.03125 122.03125 8.589844 121.636719 8.253906 C 121.238281 7.914062 120.8125 7.996094 120.070312 8.449219 C 118.980469 9.113281 117.902344 9.804688 116.765625 10.371094 C 113.476562 12.003906 109.96875 12.992188 106.40625 13.804688 C 103.03125 14.578125 99.636719 15.285156 96.394531 16.535156 C 92.980469 17.851562 89.90625 19.632812 87.835938 22.792969 C 87.632812 23.035156 87.378906 23.179688 87.070312 23.226562 C 86.25 23.375 85.414062 23.410156 84.597656 23.570312 C 74.476562 25.558594 66.917969 31.113281 61.804688 40.035156 C 60.105469 42.996094 59.039062 46.210938 58.113281 49.472656 C 57.429688 51.875 56.859375 54.324219 56.015625 56.667969 C 54.914062 59.730469 53.636719 62.730469 52.355469 65.722656 C 51.066406 68.773438 49.335938 71.546875 47.160156 74.039062 C 44.382812 77.203125 40.914062 79.34375 37.117188 81.050781 C 35.332031 81.84375 33.589844 82.726562 31.902344 83.707031 C 29.640625 85.039062 27.976562 87.015625 26.453125 89.125 C 25.96875 89.8125 25.386719 90.394531 24.707031 90.882812 C 23.625 91.613281 22.496094 92.25 21.3125 92.800781 C 19.632812 93.582031 17.859375 93.960938 15.992188 93.570312 C 15.628906 93.503906 15.289062 93.378906 14.96875 93.199219 C 14.648438 93.015625 14.367188 92.785156 14.125 92.507812 C 13.882812 92.230469 13.691406 91.921875 13.554688 91.582031 C 13.417969 91.238281 13.339844 90.882812 13.324219 90.515625 C 13.242188 89.488281 13.378906 88.492188 13.730469 87.519531 C 14.292969 86.019531 15.085938 84.652344 16.109375 83.421875 C 18.03125 81.0625 20.304688 79.074219 22.695312 77.214844 C 25.199219 75.261719 27.785156 73.402344 30.285156 71.445312 C 32.816406 69.464844 35.152344 67.273438 36.941406 64.5625 C 38.21875 62.710938 39.023438 60.667969 39.347656 58.441406 C 39.410156 57.957031 39.429688 57.476562 39.410156 56.988281 C 39.394531 56.503906 39.335938 56.023438 39.234375 55.546875 C 39.136719 55.074219 39 54.609375 38.824219 54.15625 C 38.648438 53.703125 38.4375 53.265625 38.191406 52.847656 C 37.941406 52.429688 37.664062 52.035156 37.351562 51.664062 C 37.039062 51.292969 36.695312 50.949219 36.328125 50.632812 C 35.957031 50.320312 35.5625 50.035156 35.148438 49.785156 C 34.730469 49.535156 34.296875 49.320312 33.84375 49.144531 C 32.636719 48.707031 31.390625 48.476562 30.105469 48.453125 C 29.066406 48.402344 29.070312 48.367188 28.785156 47.375 C 27.703125 43.613281 25.21875 41.402344 21.371094 40.785156 C 20.296875 40.613281 19.1875 40.671875 18.09375 40.660156 C 15.703125 40.636719 13.488281 40.148438 11.730469 38.367188 C 11.597656 38.242188 11.445312 38.148438 11.269531 38.089844 C 10.710938 37.914062 10.320312 38.28125 10.476562 38.847656 C 10.546875 39.074219 10.652344 39.28125 10.789062 39.472656 C 11.976562 41.25 12.691406 43.222656 13.277344 45.265625 C 13.546875 46.273438 13.917969 47.242188 14.390625 48.171875 C 16.179688 51.519531 18.9375 53.320312 22.820312 53.128906 C 24.519531 53.015625 26.089844 52.5 27.527344 51.589844 C 28.140625 51.214844 28.804688 51.015625 29.519531 50.992188 C 31.730469 50.882812 33.726562 51.410156 35.261719 53.089844 C 36.925781 54.910156 37.183594 57.066406 36.621094 59.378906 C 36.0625 61.675781 34.75 63.539062 33.183594 65.25 C 31.359375 67.242188 29.207031 68.839844 27.03125 70.414062 C 24.160156 72.488281 21.257812 74.523438 18.464844 76.699219 C 15.628906 78.855469 13.296875 81.464844 11.472656 84.523438 C 10.304688 86.527344 9.65625 88.65625 9.796875 91.007812 C 9.835938 92.152344 10.148438 93.214844 10.730469 94.199219 C 11.316406 95.1875 12.101562 95.96875 13.085938 96.554688 C 13.996094 97.113281 14.96875 97.507812 16.007812 97.738281 C 17.046875 97.96875 18.097656 98.023438 19.15625 97.898438 C 20.214844 97.796875 21.261719 97.5625 22.3125 97.375 C 23.078125 97.242188 23.066406 97.234375 23.007812 97.980469 C 22.722656 101.640625 22.453125 105.300781 22.15625 108.960938 C 22.019531 110.644531 21.882812 112.332031 21.671875 114.015625 C 21.5625 114.816406 21.367188 115.59375 21.089844 116.355469 C 20.726562 117.375 20.195312 117.671875 19.121094 117.644531 C 18.652344 117.632812 18.179688 117.597656 17.714844 117.632812 C 17.296875 117.664062 16.890625 117.761719 16.503906 117.925781 C 16.117188 118.085938 15.765625 118.308594 15.449219 118.585938 C 15.132812 118.863281 14.871094 119.183594 14.660156 119.546875 C 14.449219 119.910156 14.300781 120.296875 14.21875 120.710938 C 14.117188 121.300781 14.054688 121.894531 14.03125 122.492188 C 13.734375 126.703125 12.898438 130.695312 9.78125 133.867188 C 8.894531 134.769531 8.738281 135.9375 9.128906 137.148438 C 9.246094 137.523438 9.402344 137.878906 9.601562 138.21875 C 9.695312 138.359375 9.742188 138.515625 9.738281 138.6875 C 9.734375 138.859375 9.683594 139.011719 9.578125 139.148438 C 8.375 141.144531 8.378906 143.367188 8.394531 145.59375 C 8.398438 145.914062 8.53125 146.074219 8.863281 146.066406 C 9.019531 146.0625 9.175781 146.070312 9.328125 146.070312 C 13.683594 146.070312 18.035156 146.070312 22.386719 146.066406 C 22.488281 146.066406 22.632812 146.113281 22.691406 146.0625 C 22.808594 145.964844 22.886719 145.839844 22.917969 145.691406 C 22.9375 145.582031 22.847656 145.449219 22.792969 145.332031 C 21.855469 143.113281 20.664062 141.039062 19.214844 139.117188 C 18.917969 138.734375 18.832031 138.425781 19.078125 137.992188 C 19.515625 137.222656 19.550781 136.382812 19.546875 135.5 C 19.519531 134.484375 19.617188 133.480469 19.835938 132.488281 C 20.667969 129.089844 22.824219 126.777344 25.976562 125.355469 C 27.234375 124.785156 28.480469 124.191406 29.757812 123.667969 C 33.503906 122.148438 36.835938 120.03125 39.59375 117.042969 C 40.042969 116.566406 40.519531 116.125 41.027344 115.714844 C 42.175781 114.710938 43.503906 114.089844 45.007812 113.847656 C 45.761719 113.742188 46.5 113.824219 47.082031 114.316406 C 48.925781 115.875 50.003906 117.84375 49.988281 120.292969 C 49.976562 121.8125 49.261719 122.546875 47.738281 122.804688 C 47.6875 122.8125 47.632812 122.816406 47.585938 122.828125 C 46.5 123.027344 46.261719 123.34375 46.425781 124.425781 C 46.472656 124.710938 46.554688 124.984375 46.671875 125.246094 C 47.097656 126.25 47.730469 127.097656 48.566406 127.796875 C 49.578125 128.65625 50.648438 129.449219 51.6875 130.269531 C 54.644531 132.605469 56.851562 135.402344 57.339844 139.292969 C 57.53125 140.820312 58.390625 141.75 59.957031 141.945312 C 60.089844 141.945312 60.210938 141.988281 60.3125 142.078125 C 60.417969 142.167969 60.476562 142.28125 60.492188 142.417969 C 60.589844 143.082031 60.695312 143.753906 60.78125 144.425781 C 60.78125 144.460938 60.785156 144.492188 60.785156 144.523438 C 60.835938 145.371094 61.054688 145.9375 62.386719 146.09375 C 62.679688 146.125 62.96875 146.140625 63.261719 146.140625 L 74.25 146.140625 C 74.292969 146.140625 74.335938 146.136719 74.382812 146.132812 C 75.269531 146.039062 74.886719 144.984375 74.425781 144.367188 C 74.410156 144.34375 74.390625 144.320312 74.375 144.300781 C 73.410156 143.074219 72.410156 141.871094 71.371094 140.707031 C 70.5625 139.757812 69.574219 139.054688 68.410156 138.597656 C 68.085938 138.472656 67.90625 138.242188 67.871094 137.898438 C 67.78125 137.398438 67.582031 136.949219 67.273438 136.546875 C 66.960938 136.148438 66.578125 135.839844 66.121094 135.625 C 64.292969 134.8125 62.964844 133.4375 61.789062 131.894531 C 61.058594 130.945312 60.378906 129.957031 59.726562 128.953125 C 59.445312 128.511719 59.234375 128.039062 59.089844 127.535156 C 58.945312 127.105469 58.921875 126.667969 59.011719 126.222656 C 59.105469 125.777344 59.304688 125.386719 59.609375 125.046875 C 60.464844 124.066406 61.339844 123.101562 62.164062 122.09375 C 63.960938 119.886719 65.621094 117.585938 66.679688 114.914062 C 66.871094 114.457031 67.035156 113.988281 67.167969 113.511719 C 67.292969 113.03125 67.554688 112.871094 68.050781 112.835938 C 69.867188 112.714844 71.683594 112.558594 73.492188 112.378906 C 74.214844 112.304688 74.929688 112.125 75.644531 112 C 75.875 111.957031 76.105469 111.910156 76.339844 111.882812 C 77.378906 111.773438 78.074219 112.300781 78.125 113.351562 C 78.148438 114.003906 78.09375 114.652344 77.957031 115.289062 C 77.550781 117.292969 78.105469 118.996094 79.460938 120.472656 C 79.601562 120.625 79.738281 120.785156 79.886719 120.933594 C 82.789062 123.769531 83.503906 127.257812 82.921875 131.128906 C 82.828125 131.746094 82.683594 132.355469 82.582031 132.96875 C 82.335938 134.460938 82.714844 135.703125 84.03125 136.574219 C 84.421875 136.832031 84.804688 137.105469 85.167969 137.398438 C 85.371094 137.535156 85.511719 137.71875 85.59375 137.949219 C 85.675781 138.175781 85.679688 138.410156 85.613281 138.640625 C 85.109375 140.53125 85.488281 142.304688 86.296875 144.027344 C 86.351562 144.144531 86.398438 144.265625 86.453125 144.386719 C 87.097656 145.777344 87.558594 146.117188 89.511719 146.136719 C 89.574219 146.136719 89.640625 146.136719 89.707031 146.136719 L 103.90625 146.136719 C 104.066406 146.140625 104.226562 146.128906 104.386719 146.097656 L 104.390625 146.097656 C 104.390625 146.101562 104.390625 146.101562 104.394531 146.097656 C 105.484375 145.90625 105.355469 145.023438 104.898438 144.386719 C 104.882812 144.363281 104.867188 144.34375 104.851562 144.328125 C 104.808594 144.273438 104.769531 144.21875 104.726562 144.160156 C 103.441406 142.292969 102.113281 140.453125 100.765625 138.636719 C 99.820312 137.359375 98.8125 136.113281 97.484375 135.203125 C 96.941406 134.828125 96.726562 134.449219 96.847656 133.789062 C 97.074219 132.542969 96.660156 131.480469 95.78125 130.585938 C 95.527344 130.328125 95.292969 130.046875 95.039062 129.785156 C 93.605469 128.269531 92.671875 126.496094 92.230469 124.460938 C 91.898438 123.066406 91.855469 121.71875 92.515625 120.351562 C 93.308594 118.703125 93.652344 116.9375 93.222656 115.105469 C 93.066406 114.421875 92.875 113.746094 92.648438 113.082031 C 92.320312 112.121094 92.304688 112.152344 93.335938 111.914062 C 94.148438 111.722656 94.957031 111.507812 95.746094 111.246094 C 98.933594 110.15625 101.710938 108.410156 104.070312 106.007812 C 104.226562 105.808594 104.429688 105.679688 104.671875 105.617188 C 104.914062 105.554688 105.152344 105.574219 105.382812 105.671875 C 106.710938 106.101562 108.042969 106.136719 109.390625 105.777344 C 110.226562 105.578125 111.054688 105.351562 111.894531 105.15625 C 113.597656 104.757812 115.316406 104.464844 117.078125 104.574219 C 119.140625 104.703125 120.183594 105.996094 119.730469 107.988281 C 119.148438 110.515625 117.984375 112.574219 115.164062 113.148438 C 114.101562 113.363281 113.554688 114.117188 113.179688 115.0625 C 112.910156 115.746094 112.886719 115.734375 112.382812 115.25 C 112.195312 115.070312 112.003906 114.886719 111.808594 114.71875 C 111.488281 114.398438 111.105469 114.203125 110.65625 114.128906 C 110.210938 114.058594 109.78125 114.125 109.378906 114.328125 C 108.019531 114.878906 106.746094 115.578125 105.554688 116.429688 C 103.214844 118.171875 101.519531 120.40625 100.476562 123.128906 C 100.230469 123.75 100.265625 123.820312 100.859375 124.070312 C 100.980469 124.117188 101.105469 124.160156 101.230469 124.199219 C 104.402344 125.222656 107.664062 125.417969 110.964844 125.171875 C 111.554688 125.082031 112.136719 124.945312 112.707031 124.769531 C 113.1875 124.660156 113.675781 124.589844 114.148438 124.449219 C 114.675781 124.332031 115.175781 124.136719 115.648438 123.871094 C 116.128906 123.511719 116.554688 123.097656 116.929688 122.628906 C 117.167969 122.324219 117.480469 122.160156 117.867188 122.140625 C 118.152344 122.128906 118.4375 122.121094 118.722656 122.089844 C 120.957031 121.824219 122.660156 120.808594 123.5625 118.660156 C 123.722656 118.277344 123.867188 117.886719 124.003906 117.492188 C 124.910156 114.695312 126.375 112.230469 128.394531 110.09375 C 129.222656 109.230469 130.074219 108.386719 130.894531 107.511719 C 131.617188 106.761719 132.191406 105.914062 132.621094 104.964844 C 133.046875 104.015625 133.300781 103.023438 133.378906 101.984375 C 133.570312 99.472656 132.4375 97.453125 130.734375 95.707031 C 129.132812 94.082031 127.351562 92.691406 125.386719 91.53125 C 123.691406 90.511719 121.953125 89.566406 120.207031 88.628906 C 119.601562 88.304688 119.398438 87.871094 119.328125 87.203125 C 119.207031 85.9375 119.011719 84.679688 118.738281 83.4375 C 118.132812 80.710938 116.929688 78.226562 115.542969 75.828125 C 113.933594 73.050781 112.453125 70.214844 111.40625 67.171875 C 111.167969 66.507812 110.984375 65.832031 110.855469 65.140625 C 110.628906 63.855469 111.3125 63.089844 112.621094 63.089844 C 113.507812 63.109375 114.308594 63.390625 115.015625 63.929688 C 115.722656 64.457031 116.230469 65.136719 116.535156 65.96875 C 117.054688 67.253906 117.878906 68.269531 119.257812 68.683594 C 121.980469 69.496094 124.523438 69.277344 126.691406 67.242188 C 127.140625 66.78125 127.6875 66.539062 128.335938 66.523438 C 130.496094 66.421875 131.765625 65.230469 132.035156 63.390625 C 132.101562 63.109375 132.230469 62.859375 132.417969 62.640625 C 133.597656 61.101562 133.636719 59.382812 132.523438 57.816406 C 130.375 54.730469 128.484375 51.496094 126.855469 48.105469 C 126.304688 46.984375 126.09375 45.910156 126.585938 44.671875 C 127.160156 43.21875 126.898438 41.808594 125.894531 40.558594 C 125.644531 40.253906 125.464844 39.914062 125.359375 39.535156 C 125.152344 38.730469 125.386719 38.472656 126.21875 38.523438 C 127.996094 38.625 129.757812 38.488281 131.5 38.109375 C 135.1875 37.3125 138.390625 35.636719 140.972656 32.835938 C 142.171875 31.546875 143.125 30.097656 143.835938 28.484375 C 144.550781 26.875 144.976562 25.191406 145.125 23.433594 C 145.234375 22.273438 145.152344 21.09375 145.152344 19.917969 Z M 21.109375 48.933594 C 19.574219 48.558594 18.296875 47.867188 17.367188 46.617188 C 17.320312 46.554688 17.335938 46.441406 17.324219 46.351562 C 17.394531 46.375 17.464844 46.40625 17.527344 46.449219 C 18.628906 47.421875 19.859375 48.183594 21.222656 48.730469 C 21.273438 48.75 21.304688 48.832031 21.351562 48.882812 Z M 27.125 48.636719 C 27.050781 48.625 26.980469 48.601562 26.917969 48.566406 C 24.621094 46.753906 21.898438 45.722656 19.332031 44.414062 C 19.007812 44.246094 18.695312 44.054688 18.386719 43.867188 C 16.707031 42.960938 16.183594 42.175781 16.152344 42.128906 C 16.164062 42.132812 16.25 42.179688 16.808594 42.46875 C 17.46875 42.808594 18.605469 43.125 20.207031 43.183594 L 20.214844 43.183594 C 20.785156 43.230469 21.347656 43.332031 21.898438 43.492188 C 22.800781 43.78125 23.625 44.214844 24.371094 44.800781 C 25.113281 45.386719 25.730469 46.085938 26.222656 46.898438 C 26.519531 47.386719 26.828125 47.871094 27.117188 48.363281 C 27.15625 48.433594 27.125 48.546875 27.125 48.636719 Z M 112.550781 122.148438 C 112.542969 122.210938 112.472656 122.265625 112.429688 122.324219 C 112.386719 122.265625 112.308594 122.21875 112.296875 122.15625 C 112.238281 121.953125 112.203125 121.75 112.1875 121.542969 C 112.195312 121.238281 112.101562 120.972656 111.910156 120.742188 C 111.714844 120.507812 111.46875 120.371094 111.167969 120.328125 C 110.078125 120.113281 108.972656 119.972656 108.28125 119.867188 C 106.765625 119.976562 105.675781 120.066406 104.589844 120.140625 C 104.4375 120.140625 104.285156 120.128906 104.136719 120.105469 C 104.1875 119.96875 104.253906 119.839844 104.339844 119.71875 C 105.90625 117.925781 107.839844 116.714844 110.140625 116.085938 C 110.59375 115.964844 110.949219 116 111.242188 116.390625 C 112.554688 118.109375 112.867188 120.058594 112.550781 122.148438 Z M 104.0625 27.710938 C 105.140625 28.242188 105.671875 29.144531 105.6875 30.53125 C 105.664062 30.660156 105.613281 30.96875 105.535156 31.265625 C 105.191406 32.542969 104.777344 32.78125 103.488281 32.40625 C 101.277344 31.789062 99.285156 30.753906 97.511719 29.296875 C 96.878906 28.769531 96.785156 28.929688 96.523438 29.515625 C 96.460938 29.660156 96.417969 29.8125 96.347656 29.949219 C 96.316406 30.011719 96.242188 30.050781 96.1875 30.097656 C 96.136719 30.019531 96.101562 29.933594 96.078125 29.84375 C 96.082031 29.710938 96.101562 29.585938 96.144531 29.460938 C 96.554688 28.027344 97.300781 26.796875 98.378906 25.769531 C 98.523438 25.589844 98.707031 25.480469 98.929688 25.441406 C 99.15625 25.398438 99.367188 25.4375 99.5625 25.550781 C 101.058594 26.28125 102.570312 26.976562 104.0625 27.710938 Z M 101.417969 77.378906 C 101.289062 77.328125 101.167969 77.261719 101.054688 77.183594 C 98.863281 75.179688 96.660156 73.191406 94.496094 71.160156 C 91.644531 68.484375 88.894531 65.714844 86.738281 62.414062 C 85.050781 59.890625 84.15625 57.113281 84.054688 54.078125 C 84.089844 52.164062 84.519531 50.34375 85.347656 48.613281 C 86.371094 46.492188 87.71875 44.636719 89.722656 43.324219 C 89.824219 43.242188 89.929688 43.167969 90.042969 43.101562 C 90.183594 43.046875 90.324219 43 90.46875 42.964844 C 90.46875 43.132812 90.445312 43.296875 90.398438 43.457031 C 89.644531 45.167969 88.773438 46.839844 88.136719 48.597656 C 86.789062 52.332031 86.855469 56.078125 88.230469 59.832031 C 89.371094 62.933594 91.105469 65.65625 93.433594 68.003906 C 93.507812 68.066406 93.589844 68.128906 93.675781 68.179688 C 93.671875 68.085938 93.648438 67.992188 93.617188 67.902344 C 92.714844 66.292969 91.738281 64.71875 90.914062 63.070312 C 89.222656 59.679688 88.820312 56.214844 90.617188 52.71875 C 90.902344 52.191406 91.265625 51.71875 91.695312 51.300781 C 92.050781 50.941406 92.257812 51.054688 92.347656 51.554688 C 92.613281 53.011719 92.894531 54.46875 93.140625 55.929688 C 93.21875 56.34375 93.234375 56.753906 93.1875 57.171875 C 93 58.527344 93.039062 59.875 93.308594 61.214844 C 93.578125 62.558594 94.058594 63.816406 94.753906 64.996094 C 96.164062 67.457031 97.710938 69.839844 99.105469 72.3125 C 99.960938 73.824219 100.640625 75.4375 101.390625 77.007812 C 101.421875 77.128906 101.429688 77.253906 101.417969 77.378906 Z M 93.601562 39.675781 C 92.203125 39.355469 91.195312 38.457031 90.347656 37.386719 C 89.78125 36.613281 89.261719 35.8125 88.785156 34.976562 C 88.601562 34.675781 88.730469 34.460938 89.070312 34.4375 C 91.203125 34.285156 93.34375 34.105469 95.277344 35.332031 C 95.453125 35.441406 95.636719 35.542969 95.796875 35.671875 C 95.867188 35.726562 95.890625 35.835938 95.9375 35.921875 C 95.851562 35.96875 95.761719 35.996094 95.667969 36.015625 C 95.097656 36.023438 94.527344 36.019531 93.953125 36.019531 C 93.953125 35.988281 93.953125 35.953125 93.953125 35.921875 C 93.199219 35.984375 92.449219 36.050781 91.703125 36.121094 C 91.628906 36.144531 91.5625 36.175781 91.5 36.222656 C 91.550781 36.304688 91.582031 36.410156 91.652344 36.457031 C 92.476562 36.996094 93.300781 37.539062 94.144531 38.054688 C 94.945312 38.542969 95.78125 38.867188 96.726562 38.449219 C 96.796875 38.417969 96.90625 38.476562 96.996094 38.492188 C 96.976562 38.589844 96.941406 38.679688 96.886719 38.765625 C 95.972656 39.714844 94.867188 39.96875 93.601562 39.675781 Z M 90.265625 23.175781 C 91.308594 21.535156 92.847656 20.464844 94.503906 19.566406 C 97.433594 17.976562 100.609375 17.054688 103.820312 16.226562 C 106.136719 15.628906 108.457031 15.03125 110.757812 14.371094 C 113.394531 13.621094 115.957031 12.671875 118.28125 11.175781 C 118.34375 11.128906 118.410156 11.089844 118.484375 11.0625 C 118.554688 11.054688 118.625 11.054688 118.695312 11.066406 C 118.671875 11.136719 118.671875 11.222656 118.628906 11.269531 C 118.394531 11.515625 118.144531 11.746094 117.886719 11.964844 C 116.554688 13.050781 115.140625 14.015625 113.636719 14.851562 C 113.632812 14.855469 113.621094 14.863281 113.597656 14.875 C 112.921875 15.246094 112.226562 15.582031 111.515625 15.878906 C 109.566406 16.820312 103.507812 19.445312 100.507812 21.25 C 100.269531 21.410156 100.023438 21.558594 99.78125 21.714844 C 99.65625 21.796875 99.53125 21.878906 99.410156 21.964844 C 98.226562 22.8125 97.003906 23.617188 95.890625 24.546875 C 94.285156 25.882812 93.167969 27.550781 92.871094 29.679688 C 92.835938 29.796875 92.789062 29.910156 92.730469 30.019531 C 92.660156 29.914062 92.605469 29.800781 92.566406 29.683594 C 92.457031 29.070312 92.238281 28.59375 91.511719 28.53125 C 90.960938 28.484375 90.425781 28.363281 90.09375 27.84375 C 89.644531 27.238281 89.40625 26.5625 89.382812 25.8125 C 89.445312 24.855469 89.738281 23.976562 90.265625 23.175781 Z M 53.234375 68.824219 C 54.203125 65.621094 55.628906 62.613281 57.195312 59.664062 C 57.214844 59.617188 57.238281 59.570312 57.273438 59.53125 C 57.339844 59.464844 57.417969 59.40625 57.492188 59.347656 C 57.523438 59.433594 57.585938 59.527344 57.574219 59.605469 C 57.542969 59.785156 57.5 59.960938 57.4375 60.136719 C 56.261719 64.019531 55.644531 67.992188 55.589844 72.054688 C 55.527344 74.949219 55.5625 77.832031 56.105469 80.6875 C 56.839844 84.519531 58.707031 87.738281 61.449219 90.472656 C 61.773438 90.777344 62.117188 91.054688 62.480469 91.304688 C 62.640625 91.402344 62.757812 91.535156 62.835938 91.707031 C 62.910156 91.878906 62.929688 92.054688 62.894531 92.238281 C 62.824219 92.726562 62.816406 93.222656 62.78125 93.714844 C 62.734375 95.054688 62.890625 96.367188 63.25 97.65625 C 63.285156 97.753906 63.308594 97.855469 63.320312 97.960938 C 63.316406 98.078125 63.304688 98.195312 63.28125 98.3125 C 63.164062 98.273438 63.050781 98.21875 62.945312 98.152344 C 62.695312 97.96875 62.457031 97.765625 62.242188 97.539062 C 60.667969 95.734375 59.050781 93.96875 57.550781 92.101562 C 54.980469 88.902344 53.378906 85.277344 52.75 81.21875 C 52.5 79.683594 52.265625 78.136719 52.136719 76.582031 C 51.910156 73.921875 52.464844 71.355469 53.234375 68.824219 Z M 18.589844 96.203125 C 18.304688 96.21875 18.019531 96.203125 17.730469 96.203125 C 16.164062 96.242188 14.65625 95.988281 13.339844 95.089844 C 11.175781 93.613281 10.535156 91.496094 10.914062 89.003906 C 11.324219 86.296875 12.667969 84.015625 14.304688 81.890625 C 16.035156 79.652344 18.144531 77.789062 20.328125 76.007812 C 20.433594 75.9375 20.542969 75.875 20.660156 75.828125 C 20.636719 75.964844 20.589844 76.09375 20.523438 76.210938 C 20.285156 76.488281 20.023438 76.746094 19.765625 77 C 17.636719 79.078125 15.597656 81.234375 13.96875 83.738281 C 12.964844 85.273438 12.117188 86.890625 11.835938 88.726562 C 11.695312 89.523438 11.664062 90.324219 11.742188 91.132812 C 11.957031 92.910156 13.058594 94.007812 14.703125 94.625 C 16.558594 95.324219 18.441406 95.253906 20.3125 94.789062 C 21.242188 94.558594 22.128906 94.160156 23.03125 93.84375 C 23.148438 93.808594 23.269531 93.78125 23.390625 93.757812 C 23.351562 93.875 23.296875 93.980469 23.226562 94.082031 C 22.628906 94.734375 21.929688 95.246094 21.125 95.613281 C 20.320312 95.980469 19.472656 96.175781 18.589844 96.203125 Z M 17.78125 144.359375 C 16.945312 144.394531 16.113281 144.371094 15.28125 144.371094 L 15.28125 144.324219 C 14.472656 144.324219 13.667969 144.324219 12.859375 144.328125 C 12.300781 144.328125 11.898438 144.117188 11.742188 143.554688 C 11.484375 142.761719 11.269531 141.957031 11.101562 141.144531 C 10.988281 140.429688 11.355469 139.835938 11.925781 139.390625 C 13.34375 138.269531 16 138.410156 17.292969 139.671875 C 17.371094 139.765625 17.4375 139.871094 17.488281 139.984375 C 17.363281 140.046875 17.230469 140.082031 17.089844 140.097656 C 16.738281 140.054688 16.386719 139.96875 16.03125 139.902344 C 16.238281 140.214844 16.460938 140.515625 16.652344 140.839844 C 17.179688 141.738281 17.707031 142.640625 18.210938 143.550781 C 18.5625 144.195312 18.496094 144.328125 17.78125 144.359375 Z M 50.328125 109.777344 C 47.867188 109.730469 45.667969 110.390625 43.558594 111.410156 C 43.105469 111.664062 42.671875 111.949219 42.253906 112.257812 C 42.164062 112.300781 42.066406 112.335938 41.96875 112.359375 C 41.945312 112.242188 41.941406 112.125 41.960938 112.003906 C 42.574219 110.421875 43.519531 109.183594 45.285156 108.796875 C 45.386719 108.773438 45.488281 108.742188 45.585938 108.707031 C 45.652344 108.671875 45.714844 108.636719 45.777344 108.589844 C 45.703125 108.535156 45.625 108.4375 45.550781 108.433594 C 44.769531 108.410156 43.992188 108.40625 43.210938 108.390625 C 43.085938 108.390625 42.960938 108.363281 42.835938 108.351562 C 42.929688 108.246094 43.003906 108.105469 43.117188 108.042969 C 44.179688 107.488281 45.328125 107.460938 46.46875 107.636719 C 48.335938 107.917969 50.074219 108.628906 51.78125 109.40625 C 51.882812 109.472656 51.976562 109.550781 52.054688 109.640625 C 51.949219 109.703125 51.839844 109.746094 51.722656 109.769531 C 51.226562 109.785156 50.734375 109.777344 50.328125 109.777344 Z M 53.054688 121.839844 C 53 122.457031 52.964844 122.921875 52.914062 123.382812 C 52.90625 123.445312 52.828125 123.496094 52.785156 123.550781 C 52.738281 123.5 52.664062 123.449219 52.65625 123.390625 C 52.632812 123.1875 52.621094 122.980469 52.625 122.773438 C 52.617188 121.023438 52.359375 119.316406 51.851562 117.640625 C 51.8125 117.519531 51.78125 117.394531 51.761719 117.265625 C 51.753906 117.203125 51.808594 117.136719 51.835938 117.074219 C 51.898438 117.105469 51.957031 117.148438 52.007812 117.203125 C 52.089844 117.332031 52.164062 117.46875 52.226562 117.613281 C 52.863281 118.949219 53.136719 120.359375 53.054688 121.835938 Z M 52.914062 104.835938 C 48.789062 101.558594 46.289062 97.339844 45.609375 92.089844 C 45.507812 91.316406 45.5 90.53125 45.449219 89.753906 C 45.441406 89.675781 45.425781 89.601562 45.410156 89.523438 C 45.363281 89.597656 45.324219 89.671875 45.296875 89.753906 C 44.976562 91.453125 44.90625 93.164062 45.085938 94.886719 C 45.207031 96.375 45.550781 97.8125 46.113281 99.199219 C 46.140625 99.296875 46.152344 99.394531 46.15625 99.496094 C 45.949219 99.328125 45.777344 99.132812 45.628906 98.914062 C 44.65625 97.523438 44.113281 95.867188 43.730469 94.226562 C 43.453125 93.152344 43.308594 92.0625 43.296875 90.953125 C 43.316406 89.789062 43.679688 88.75 44.023438 87.660156 C 44.046875 87.5625 44.066406 87.464844 44.078125 87.367188 C 43.980469 87.417969 43.84375 87.445312 43.785156 87.523438 C 42.582031 89.054688 41.679688 90.746094 41.074219 92.597656 C 40.539062 94.460938 40.238281 96.359375 40.164062 98.292969 C 39.9375 101.992188 39.542969 105.664062 38.257812 109.179688 C 37.644531 110.898438 36.792969 112.488281 35.703125 113.953125 C 34.613281 115.414062 33.335938 116.6875 31.867188 117.773438 C 31.636719 117.914062 31.390625 118.027344 31.136719 118.117188 C 31.210938 117.882812 31.304688 117.65625 31.410156 117.429688 C 32.152344 116.03125 32.589844 114.542969 32.726562 112.964844 C 32.777344 112.527344 32.824219 112.085938 32.867188 111.644531 C 32.863281 111.550781 32.847656 111.457031 32.820312 111.363281 C 32.765625 111.449219 32.71875 111.535156 32.679688 111.628906 C 31.953125 113.988281 30.875 116.171875 29.445312 118.1875 C 27.585938 120.738281 25.164062 122.40625 22.019531 122.960938 C 20.667969 123.199219 19.390625 123.628906 18.3125 124.519531 C 18.132812 124.667969 17.960938 124.828125 17.792969 124.992188 C 17.746094 125.070312 17.710938 125.152344 17.691406 125.242188 C 17.761719 125.21875 17.828125 125.191406 17.894531 125.15625 C 18.132812 124.996094 18.355469 124.8125 18.605469 124.671875 C 18.785156 124.566406 18.921875 124.636719 18.875 124.863281 C 18.828125 125.089844 18.722656 125.304688 18.660156 125.53125 C 18.132812 127.355469 17.613281 129.183594 17.089844 131.011719 C 17.054688 131.164062 17.027344 131.316406 17.015625 131.472656 C 17.015625 131.523438 17.023438 131.574219 17.039062 131.621094 C 17.089844 131.582031 17.167969 131.554688 17.1875 131.503906 C 17.308594 131.191406 17.40625 130.867188 17.527344 130.550781 C 18.070312 129.125 18.769531 127.792969 19.925781 126.757812 C 20.027344 126.679688 20.136719 126.617188 20.25 126.5625 C 20.242188 126.707031 20.21875 126.84375 20.179688 126.980469 C 19.613281 128.234375 19.003906 129.472656 18.472656 130.742188 C 18.039062 131.871094 17.808594 133.042969 17.773438 134.25 C 17.75 134.796875 17.695312 135.34375 17.617188 135.882812 C 17.5 136.621094 17.082031 136.894531 16.339844 136.78125 C 16.132812 136.75 15.929688 136.703125 15.730469 136.640625 C 14.984375 136.421875 14.242188 136.425781 13.5 136.660156 C 13.125 136.78125 12.742188 136.851562 12.351562 136.878906 C 11.292969 136.894531 10.796875 136.035156 11.308594 135.121094 C 11.382812 134.980469 11.472656 134.855469 11.582031 134.738281 C 13.492188 132.835938 14.457031 130.421875 15.1875 127.902344 C 15.746094 125.941406 16.070312 123.941406 16.152344 121.902344 C 16.242188 120.023438 17.554688 119.195312 19.269531 119.9375 C 19.699219 120.121094 20.128906 120.113281 20.554688 119.914062 C 21.574219 119.507812 22.304688 118.808594 22.753906 117.804688 C 23.375 116.507812 23.453125 115.089844 23.644531 113.703125 C 23.78125 112.722656 23.886719 111.738281 24.019531 110.757812 C 24.0625 110.617188 24.125 110.480469 24.210938 110.355469 C 24.28125 110.472656 24.339844 110.597656 24.390625 110.722656 C 24.625 111.464844 24.828125 112.222656 25.082031 112.957031 C 25.539062 114.265625 25.980469 115.574219 25.808594 116.992188 C 25.730469 117.675781 25.519531 118.3125 25.171875 118.90625 C 24.828125 119.496094 24.375 119.992188 23.816406 120.394531 C 23.648438 120.519531 23.46875 120.628906 23.304688 120.753906 C 23.25 120.796875 23.175781 120.917969 23.1875 120.933594 C 23.351562 121.117188 23.527344 121.285156 23.722656 121.4375 C 23.832031 121.492188 23.945312 121.496094 24.058594 121.445312 C 24.695312 121.191406 25.238281 120.804688 25.691406 120.285156 C 27.25 118.386719 27.566406 116.195312 27.199219 113.875 C 26.980469 112.589844 26.667969 111.328125 26.269531 110.085938 C 25.675781 108.054688 25.25 105.992188 25 103.890625 C 24.972656 103.738281 24.964844 103.582031 24.96875 103.425781 C 25.097656 101.398438 25.054688 99.34375 25.390625 97.355469 C 26.417969 91.324219 29.757812 86.933594 35.191406 84.132812 C 35.75 83.847656 36.308594 83.574219 36.878906 83.3125 C 37.019531 83.273438 37.164062 83.261719 37.3125 83.273438 C 37.269531 83.410156 37.210938 83.535156 37.128906 83.652344 C 36.679688 84.125 36.183594 84.554688 35.753906 85.039062 C 34.21875 86.765625 32.972656 88.679688 32.023438 90.785156 C 31.074219 92.890625 30.460938 95.089844 30.1875 97.386719 C 29.882812 99.753906 30.050781 102.117188 30.214844 104.484375 C 30.292969 105.625 30.363281 106.769531 30.453125 107.910156 C 30.480469 108.074219 30.53125 108.234375 30.59375 108.386719 C 30.679688 108.234375 30.742188 108.070312 30.78125 107.902344 C 30.824219 107.4375 30.835938 106.964844 30.839844 106.5 C 30.855469 102.125 31.34375 97.804688 32.585938 93.613281 C 33.101562 91.996094 33.777344 90.449219 34.617188 88.976562 C 36.550781 85.453125 39.390625 82.757812 42.695312 80.519531 C 44.300781 79.433594 45.898438 78.335938 47.503906 77.25 C 47.929688 76.992188 47.957031 77.316406 47.617188 78.351562 C 47.277344 79.390625 47.246094 80.078125 47.441406 80.410156 C 47.640625 80.746094 47.683594 80.210938 47.683594 80.210938 C 47.964844 79.15625 48.339844 78.425781 48.589844 78.164062 C 48.789062 77.957031 48.578125 78.851562 48.445312 79.902344 C 48.410156 80.175781 48.378906 80.457031 48.359375 80.734375 C 48.28125 82.082031 48.300781 82.886719 48.457031 83.261719 C 48.492188 83.066406 48.527344 82.871094 48.5625 82.675781 C 48.867188 81.039062 49.09375 79.382812 49.492188 77.769531 C 49.820312 76.433594 50.347656 75.152344 50.796875 73.847656 C 50.855469 73.738281 50.933594 73.640625 51.027344 73.558594 C 51.082031 73.683594 51.121094 73.8125 51.136719 73.949219 C 51.128906 74.472656 51.09375 74.992188 51.066406 75.511719 C 50.949219 77.578125 51.492188 79.554688 51.984375 81.519531 C 52.65625 84.195312 53.414062 86.851562 54.1875 89.5 C 55.285156 93.246094 57.320312 96.46875 59.84375 99.398438 C 60.96875 100.75 62.261719 101.917969 63.71875 102.898438 C 63.828125 102.996094 63.917969 103.109375 63.988281 103.234375 C 63.839844 103.253906 63.691406 103.261719 63.542969 103.25 C 61.441406 102.84375 59.507812 102.035156 57.742188 100.828125 C 55.445312 99.347656 53.605469 97.429688 52.21875 95.070312 C 52.136719 94.957031 52.042969 94.851562 51.941406 94.75 C 51.964844 94.902344 51.992188 95.050781 52.035156 95.195312 C 52.878906 97.636719 54.363281 99.664062 56.1875 101.453125 C 56.648438 101.90625 57.1875 102.28125 57.683594 102.699219 C 57.757812 102.789062 57.816406 102.886719 57.855469 102.996094 C 57.757812 103.007812 57.660156 102.996094 57.566406 102.972656 C 56.296875 102.375 55.015625 101.804688 53.925781 100.882812 C 51.097656 98.484375 49.5 95.335938 48.378906 91.894531 C 48.28125 91.601562 48.148438 91.324219 48.03125 91.042969 C 48.054688 91.347656 48.054688 91.65625 48.109375 91.957031 C 48.453125 93.960938 48.898438 95.933594 49.804688 97.785156 C 51.558594 101.359375 54.207031 103.941406 57.949219 105.359375 C 57.976562 105.371094 58.003906 105.371094 58.023438 105.390625 C 58.105469 105.464844 58.183594 105.542969 58.265625 105.621094 L 58.210938 105.628906 C 58.121094 105.632812 58.03125 105.632812 57.941406 105.625 C 57.199219 105.566406 55.953125 105.105469 54.660156 104.511719 C 54.539062 104.460938 54.421875 104.40625 54.300781 104.347656 C 54.296875 104.34375 54.292969 104.34375 54.289062 104.339844 C 54.066406 104.238281 53.84375 104.128906 53.625 104.019531 C 53.773438 104.320312 53.972656 104.582031 54.21875 104.808594 C 54.914062 105.460938 55.695312 105.988281 56.5625 106.382812 C 56.445312 106.40625 56.324219 106.414062 56.203125 106.40625 C 54.992188 106.128906 53.894531 105.605469 52.917969 104.832031 Z M 55.453125 124.632812 C 55.351562 124.660156 55.25 124.671875 55.148438 124.671875 C 55.085938 124.667969 55.027344 124.605469 54.964844 124.570312 C 55.003906 124.507812 55.042969 124.449219 55.089844 124.390625 C 55.128906 124.359375 55.171875 124.332031 55.222656 124.3125 C 56.464844 123.667969 57.582031 122.847656 58.570312 121.855469 C 59.558594 120.863281 60.375 119.742188 61.015625 118.496094 C 61.082031 118.390625 61.160156 118.292969 61.246094 118.203125 C 61.273438 118.289062 61.292969 118.375 61.300781 118.410156 C 60.578125 121.304688 58.832031 123.851562 55.453125 124.632812 Z M 70.097656 109.789062 C 67.292969 110.277344 64.480469 110.585938 61.652344 109.957031 C 61.46875 109.929688 61.292969 109.890625 61.117188 109.839844 C 60.972656 109.773438 60.832031 109.695312 60.699219 109.605469 C 60.839844 109.550781 60.984375 109.511719 61.132812 109.492188 C 62.5625 109.484375 63.996094 109.484375 65.425781 109.484375 L 65.425781 109.472656 C 66.804688 109.472656 68.183594 109.472656 69.5625 109.476562 C 69.742188 109.480469 69.925781 109.496094 70.105469 109.523438 C 70.175781 109.546875 70.242188 109.582031 70.300781 109.628906 C 70.234375 109.683594 70.171875 109.777344 70.097656 109.789062 Z M 76.597656 108.542969 C 74.707031 107.914062 72.886719 107.175781 71.308594 105.917969 C 69.050781 104.113281 67.761719 101.730469 67.082031 98.976562 C 67.066406 98.851562 67.074219 98.730469 67.097656 98.609375 C 67.195312 98.703125 67.332031 98.777344 67.386719 98.894531 C 68.386719 101.058594 69.796875 102.90625 71.621094 104.445312 C 72.984375 105.546875 74.46875 106.457031 76.070312 107.171875 C 77.394531 107.789062 78.738281 108.355469 80.078125 108.929688 C 80.242188 108.96875 80.40625 108.976562 80.574219 108.960938 C 80.53125 108.820312 80.476562 108.683594 80.414062 108.550781 C 79.910156 107.636719 79.054688 107.128906 78.167969 106.695312 C 76.4375 105.820312 74.855469 104.730469 73.425781 103.417969 C 71.605469 101.808594 70.421875 99.773438 69.566406 97.527344 C 69.4375 97.195312 69.453125 96.652344 68.839844 97.035156 C 68.835938 97.039062 68.832031 97.039062 68.832031 97.039062 C 68.8125 97.050781 68.789062 97.066406 68.769531 97.078125 C 68.769531 97.082031 68.765625 97.082031 68.765625 97.082031 C 68.65625 97.164062 68.53125 97.304688 68.410156 97.390625 C 68.292969 97.480469 68.183594 97.519531 68.101562 97.414062 C 68.03125 97.328125 67.972656 97.230469 67.925781 97.132812 C 67.015625 95.261719 66.523438 93.3125 66.976562 91.230469 C 67.242188 90.019531 67.652344 88.871094 68.984375 88.367188 C 69.398438 88.210938 69.070312 88 68.9375 87.84375 C 68.179688 86.953125 67.394531 86.082031 66.652344 85.171875 C 64.574219 82.558594 63.175781 79.621094 62.457031 76.355469 C 62.234375 75.421875 62.046875 74.476562 61.839844 73.535156 C 61.824219 73.441406 61.789062 73.347656 61.761719 73.257812 C 61.738281 73.355469 61.714844 73.453125 61.703125 73.554688 C 61.621094 74.328125 61.542969 75.101562 61.46875 75.878906 C 61.328125 77.625 61.445312 79.355469 61.8125 81.070312 C 62.148438 82.789062 63.042969 84.136719 64.058594 85.457031 C 64.386719 85.828125 64.730469 86.179688 65.09375 86.511719 C 65.167969 86.609375 65.226562 86.71875 65.269531 86.832031 C 65.15625 86.867188 65.039062 86.882812 64.917969 86.886719 C 63.898438 86.742188 62.949219 86.402344 62.074219 85.859375 C 61.9375 85.777344 61.816406 85.679688 61.675781 85.605469 C 61.609375 85.574219 61.535156 85.554688 61.460938 85.542969 C 61.445312 85.640625 61.445312 85.734375 61.464844 85.828125 C 61.613281 86.132812 61.796875 86.421875 61.9375 86.726562 C 62.003906 86.910156 62.054688 87.097656 62.09375 87.289062 C 61.90625 87.234375 61.730469 87.152344 61.566406 87.050781 C 60.269531 85.96875 59.367188 84.625 58.859375 83.015625 C 58.316406 81.042969 58.078125 79.035156 58.148438 76.992188 C 58.152344 76.4375 58.175781 75.878906 58.203125 75.328125 C 58.335938 72.867188 58.3125 70.214844 58.835938 67.804688 C 58.851562 67.730469 58.867188 67.652344 58.890625 67.578125 C 59.4375 65.464844 60.394531 64.699219 62.578125 64.550781 C 65.28125 64.371094 67.734375 65.140625 70.039062 66.460938 C 74.421875 68.9375 78.199219 72.128906 81.371094 76.042969 C 82.898438 77.941406 84.144531 80.011719 85.097656 82.253906 C 86.050781 84.5 86.679688 86.828125 86.980469 89.25 C 87.238281 90.984375 87.265625 92.726562 87.066406 94.472656 C 87.066406 94.550781 87.058594 94.628906 87.035156 94.703125 C 86.976562 94.8125 86.910156 94.914062 86.839844 95.011719 C 86.761719 94.949219 86.691406 94.882812 86.621094 94.8125 C 85.796875 93.875 84.976562 92.933594 84.15625 91.996094 C 82.59375 90.191406 80.710938 88.75 78.894531 87.222656 C 77.742188 86.25 76.582031 85.285156 75.421875 84.320312 C 75.265625 84.21875 75.101562 84.132812 74.925781 84.066406 C 74.933594 84.332031 74.832031 84.679688 74.960938 84.851562 C 75.304688 85.242188 75.675781 85.601562 76.074219 85.941406 C 76.121094 86 76.15625 86.066406 76.183594 86.136719 C 76.09375 86.128906 75.984375 86.160156 75.921875 86.113281 C 75.214844 85.671875 74.539062 85.1875 73.894531 84.660156 C 71.863281 82.804688 70.066406 80.753906 68.800781 78.285156 C 68.554688 77.808594 68.472656 77.8125 68.191406 78.230469 C 67.84375 78.742188 67.816406 78.746094 67.40625 78.335938 C 67.28125 78.210938 67.152344 78.09375 67.027344 77.976562 C 67.050781 78.175781 67.085938 78.371094 67.132812 78.566406 C 68.066406 81.726562 69.90625 84.304688 72.257812 86.5625 C 73.472656 87.710938 74.792969 88.722656 76.21875 89.601562 C 78.625 91.117188 80.949219 92.746094 82.957031 94.777344 C 85.515625 97.339844 87.296875 100.359375 88.296875 103.839844 C 88.339844 103.988281 88.394531 104.136719 88.421875 104.289062 C 88.421875 104.363281 88.410156 104.4375 88.386719 104.507812 C 88.308594 104.472656 88.191406 104.457031 88.144531 104.394531 C 88.011719 104.203125 87.925781 103.972656 87.78125 103.792969 C 87.472656 103.417969 87.136719 103.058594 86.804688 102.703125 C 86.34375 102.210938 85.875 101.722656 85.398438 101.242188 C 85.328125 101.191406 85.25 101.160156 85.164062 101.136719 C 85.191406 101.210938 85.222656 101.28125 85.253906 101.351562 C 86.160156 103.050781 87.089844 104.738281 87.96875 106.457031 C 88.367188 107.242188 88.683594 108.078125 89.011719 108.898438 C 89.070312 109.117188 89.101562 109.339844 89.105469 109.566406 C 88.910156 109.472656 88.730469 109.363281 88.558594 109.234375 C 87.632812 108.308594 86.53125 107.699219 85.25 107.410156 C 85.152344 107.398438 85.050781 107.390625 84.949219 107.390625 C 85.003906 107.488281 85.074219 107.578125 85.152344 107.65625 C 86.058594 108.3125 87.027344 108.894531 87.871094 109.625 C 89.648438 111.164062 90.894531 113.070312 91.328125 115.414062 C 91.71875 117.515625 91.113281 119.375 89.808594 121.039062 C 89.464844 121.476562 89.050781 121.609375 88.574219 121.378906 C 88.027344 121.132812 87.519531 120.828125 87.046875 120.460938 C 85.382812 119.09375 84.269531 117.367188 83.710938 115.289062 C 83.539062 114.632812 83.308594 113.996094 83.105469 113.351562 C 82.582031 111.703125 81.449219 110.589844 79.929688 109.875 C 78.847656 109.363281 77.734375 108.921875 76.597656 108.542969 Z M 84.273438 121.039062 C 83.128906 120.617188 82.144531 119.953125 81.320312 119.050781 C 80.652344 118.355469 80.226562 117.535156 80.039062 116.589844 C 80.007812 116.410156 79.984375 116.230469 79.945312 115.976562 C 80.015625 115.660156 80.089844 115.277344 80.191406 114.902344 C 80.359375 114.273438 80.539062 113.648438 80.722656 113.023438 C 80.769531 112.914062 80.828125 112.8125 80.898438 112.71875 C 81.003906 112.792969 81.136719 112.839844 81.199219 112.9375 C 81.660156 113.679688 81.9375 114.484375 82.03125 115.355469 C 82.304688 117.335938 82.941406 119.148438 84.414062 120.585938 C 84.472656 120.640625 84.523438 120.699219 84.5625 120.765625 C 84.59375 120.859375 84.621094 120.949219 84.640625 121.046875 C 84.519531 121.066406 84.394531 121.0625 84.273438 121.039062 Z M 97.574219 137.585938 C 97.671875 137.691406 97.753906 137.808594 97.816406 137.9375 C 97.667969 137.960938 97.519531 137.96875 97.371094 137.953125 C 96.761719 137.835938 96.152344 137.691406 95.542969 137.570312 C 95.453125 137.574219 95.371094 137.59375 95.292969 137.628906 C 95.339844 137.683594 95.394531 137.738281 95.453125 137.785156 C 96.871094 138.851562 97.902344 140.253906 98.890625 141.695312 C 99.300781 142.296875 99.691406 142.910156 100.0625 143.539062 C 100.355469 144.035156 100.273438 144.1875 99.691406 144.203125 C 98.574219 144.226562 97.449219 144.207031 96.332031 144.207031 C 96.332031 144.230469 93.316406 144.125 91.804688 144.0625 C 91.222656 144.050781 90.75 143.816406 90.394531 143.351562 C 89.480469 142.226562 88.808594 140.972656 88.375 139.589844 C 88.28125 139.3125 88.265625 139.035156 88.328125 138.75 C 88.390625 138.464844 88.523438 138.214844 88.726562 138.007812 C 89.59375 136.992188 90.683594 136.386719 92.003906 136.1875 C 92.992188 135.988281 93.972656 136.011719 94.949219 136.257812 C 95.925781 136.503906 96.800781 136.945312 97.574219 137.585938 Z M 93.242188 130.402344 C 93.617188 130.765625 93.964844 131.152344 94.289062 131.5625 C 94.539062 131.898438 94.714844 132.269531 94.808594 132.679688 C 94.964844 133.515625 94.609375 133.890625 93.757812 133.898438 C 93.46875 133.902344 93.183594 133.898438 93.03125 133.898438 C 92.140625 133.855469 91.269531 133.964844 90.421875 134.230469 C 89.570312 134.496094 88.792969 134.902344 88.089844 135.449219 C 87.992188 135.535156 87.886719 135.613281 87.777344 135.679688 C 87.683594 135.707031 87.59375 135.714844 87.496094 135.707031 C 87.5 135.609375 87.464844 135.484375 87.515625 135.421875 C 87.761719 135.085938 88.027344 134.765625 88.3125 134.464844 C 88.726562 134.007812 89.183594 133.597656 89.6875 133.242188 C 90.160156 132.945312 90.75 132.824219 91.28125 132.621094 C 91.363281 132.585938 91.4375 132.542969 91.507812 132.496094 C 91.433594 132.480469 91.355469 132.476562 91.28125 132.484375 C 89.910156 132.800781 88.507812 133.015625 87.367188 133.941406 C 87.203125 134.070312 87.039062 134.199219 86.871094 134.324219 C 85.980469 134.988281 84.972656 134.585938 84.839844 133.460938 C 84.785156 132.941406 84.828125 132.425781 84.96875 131.921875 C 85.351562 130.394531 85.515625 128.84375 85.457031 127.273438 C 85.433594 126.035156 85.195312 124.839844 84.746094 123.6875 C 84.710938 123.617188 84.679688 123.546875 84.65625 123.472656 C 84.621094 123.277344 84.597656 123.078125 84.566406 122.878906 C 84.785156 122.878906 85.003906 122.910156 85.21875 122.96875 C 85.695312 123.175781 86.152344 123.425781 86.613281 123.671875 C 86.820312 123.78125 87.011719 123.917969 87.21875 124.027344 C 87.332031 124.078125 87.449219 124.121094 87.566406 124.15625 C 87.519531 124.046875 87.425781 123.929688 87.4375 123.832031 C 87.449219 123.753906 87.625 123.628906 87.6875 123.648438 C 88.523438 123.910156 89.304688 124.257812 89.761719 125.070312 C 89.925781 125.335938 90.070312 125.613281 90.195312 125.898438 C 90.921875 127.59375 91.9375 129.097656 93.242188 130.402344 Z M 97.609375 89.023438 C 97.5 87.085938 97.011719 85.253906 96.140625 83.519531 C 95.035156 81.242188 93.425781 79.15625 91.707031 77.285156 C 85.699219 70.753906 77.917969 65.757812 73.207031 58.234375 C 71.425781 55.386719 70.113281 52.152344 70.019531 48.792969 C 69.910156 44.871094 71.472656 41.042969 73.75 37.855469 C 76.027344 34.664062 78.992188 32.027344 82.003906 29.515625 C 81.035156 30.328125 79.464844 30.765625 78.378906 31.472656 C 77.121094 32.292969 75.945312 33.214844 74.851562 34.242188 C 70.738281 38.089844 67.160156 43.871094 67.417969 49.667969 C 67.589844 53.425781 69.039062 57.039062 71.230469 60.066406 C 72.984375 62.457031 75.035156 64.558594 77.378906 66.375 C 80.324219 68.699219 83.335938 70.933594 86.292969 73.242188 C 88.992188 75.34375 91.289062 77.820312 92.929688 80.847656 C 93.730469 82.300781 94.234375 83.855469 94.445312 85.5 C 94.65625 87.148438 94.554688 88.777344 94.140625 90.390625 C 93.785156 91.953125 93.191406 93.417969 92.359375 94.789062 C 92.25 94.921875 92.128906 95.042969 91.992188 95.144531 C 91.972656 94.972656 91.972656 94.800781 91.984375 94.628906 C 92.511719 91.394531 92.457031 88.191406 91.371094 85.066406 C 90.585938 82.863281 89.457031 80.847656 87.984375 79.027344 C 87.886719 78.925781 87.78125 78.839844 87.660156 78.769531 C 87.707031 78.886719 87.746094 79.007812 87.804688 79.121094 C 89.042969 81.507812 89.816406 84.03125 90.128906 86.699219 C 90.140625 86.75 90.148438 86.800781 90.148438 86.855469 C 90.128906 87.101562 90.101562 87.347656 90.078125 87.59375 C 89.96875 87.367188 89.875 87.136719 89.792969 86.898438 C 88.679688 83.105469 86.980469 79.625 84.363281 76.617188 C 82.425781 74.460938 80.328125 72.476562 78.070312 70.660156 C 75.957031 68.910156 73.820312 67.039062 71.804688 65.125 C 69.9375 63.347656 67.851562 61.523438 66.390625 59.386719 C 65.050781 57.425781 64.359375 55.046875 64.183594 52.691406 C 64.125 51.902344 64.363281 50.851562 64.0625 50.136719 C 63.417969 50.738281 63.25 52.628906 62.5625 53.515625 C 62.191406 53.089844 62.171875 52.472656 62.144531 51.933594 C 61.351562 55.191406 62.578125 58.625 64.554688 61.261719 C 62.875 61.40625 61.304688 60.167969 60.589844 58.636719 C 59.878906 57.105469 59.863281 55.347656 60 53.664062 C 60.070312 52.789062 60.175781 51.917969 60.324219 51.050781 C 60.46875 50.1875 60.648438 49.328125 60.867188 48.476562 C 61.085938 47.625 61.339844 46.785156 61.628906 45.957031 C 61.917969 45.125 62.242188 44.3125 62.601562 43.507812 C 62.960938 42.707031 63.351562 41.921875 63.777344 41.152344 C 64.203125 40.386719 64.660156 39.636719 65.148438 38.90625 C 65.640625 38.175781 66.160156 37.46875 66.707031 36.785156 C 67.257812 36.097656 67.835938 35.4375 68.441406 34.800781 C 69.046875 34.164062 69.679688 33.554688 70.335938 32.972656 C 70.992188 32.390625 71.675781 31.839844 72.378906 31.3125 C 73.082031 30.789062 73.808594 30.296875 74.554688 29.832031 C 75.300781 29.371094 76.066406 28.9375 76.851562 28.542969 C 77.632812 28.144531 78.433594 27.78125 79.246094 27.449219 C 80.0625 27.121094 80.886719 26.824219 81.726562 26.566406 C 82.566406 26.308594 83.414062 26.082031 84.273438 25.898438 C 85.132812 25.710938 85.996094 25.558594 86.867188 25.445312 C 86.957031 26.761719 87.292969 28.011719 87.875 29.199219 C 88.460938 30.382812 89.246094 31.410156 90.238281 32.285156 C 89.007812 32.636719 87.777344 32.992188 86.550781 33.347656 C 87.0625 33.957031 86.867188 34.921875 86.363281 35.539062 C 85.863281 36.15625 85.132812 36.535156 84.46875 36.976562 C 83.339844 37.734375 82.394531 38.675781 81.628906 39.800781 C 80.867188 40.925781 80.34375 42.15625 80.058594 43.484375 C 82.203125 41.382812 84.347656 39.285156 86.492188 37.1875 C 86.722656 36.960938 87 36.71875 87.316406 36.769531 C 87.609375 36.808594 87.804688 37.082031 87.96875 37.328125 C 88.542969 38.222656 89.121094 39.113281 89.699219 40.003906 C 89.265625 40.183594 88.84375 40.386719 88.433594 40.609375 C 88.019531 40.832031 87.621094 41.074219 87.234375 41.339844 C 86.847656 41.605469 86.476562 41.886719 86.117188 42.191406 C 85.761719 42.492188 85.421875 42.8125 85.097656 43.152344 C 84.773438 43.488281 84.464844 43.84375 84.179688 44.214844 C 83.890625 44.582031 83.625 44.96875 83.375 45.363281 C 83.128906 45.761719 82.902344 46.171875 82.695312 46.59375 C 82.492188 47.015625 82.308594 47.445312 82.148438 47.882812 C 81.988281 48.324219 81.851562 48.773438 81.738281 49.226562 C 81.621094 49.679688 81.53125 50.140625 81.464844 50.601562 C 81.398438 51.066406 81.355469 51.53125 81.335938 52 C 81.320312 52.46875 81.324219 52.9375 81.355469 53.402344 C 81.386719 53.871094 81.441406 54.335938 81.519531 54.796875 C 81.597656 55.257812 81.699219 55.714844 81.824219 56.167969 C 81.949219 56.617188 82.097656 57.0625 82.269531 57.496094 C 82.441406 57.933594 82.632812 58.359375 82.851562 58.773438 C 78.121094 53.742188 77.128906 45.574219 80.515625 39.554688 C 76.0625 42.949219 75.34375 49.660156 77.339844 54.890625 C 79.339844 60.121094 83.441406 64.222656 87.429688 68.152344 L 90.480469 71.15625 L 89.328125 70.730469 C 92.699219 73.476562 96.0625 76.273438 98.835938 79.621094 C 100.8125 82.007812 102.488281 84.714844 103.253906 87.722656 C 104.015625 90.726562 103.792969 94.0625 102.191406 96.71875 C 100.59375 99.375 97.492188 101.191406 94.410156 100.839844 C 96.574219 99.378906 98.546875 97.550781 99.816406 95.269531 C 101.085938 92.988281 101.601562 90.214844 100.859375 87.710938 C 100.835938 89.066406 100.640625 90.398438 100.269531 91.703125 C 99.898438 93.011719 99.363281 94.246094 98.667969 95.410156 C 97.972656 96.574219 97.136719 97.632812 96.164062 98.578125 C 95.191406 99.523438 94.113281 100.328125 92.929688 100.992188 C 95.554688 97.5 97.789062 93.390625 97.609375 89.023438 Z M 105.367188 100 C 104.828125 101.605469 103.972656 103.019531 102.800781 104.242188 C 101.933594 105.179688 100.929688 105.9375 99.789062 106.507812 C 98.644531 107.078125 97.4375 107.425781 96.167969 107.554688 C 96.039062 107.570312 95.910156 107.578125 95.789062 107.589844 C 94.855469 107.53125 94 107.234375 93.226562 106.699219 C 93.128906 106.632812 93.011719 106.511719 93.003906 106.414062 C 93.003906 106.339844 93.15625 106.21875 93.261719 106.1875 C 95.980469 105.378906 98.308594 103.855469 100.53125 102.15625 C 101.929688 101.050781 103.132812 99.757812 104.140625 98.289062 C 104.390625 97.988281 104.65625 97.703125 104.941406 97.441406 C 104.894531 97.820312 104.816406 98.195312 104.703125 98.5625 C 104.332031 99.503906 103.90625 100.429688 103.515625 101.359375 C 103.453125 101.542969 103.402344 101.730469 103.363281 101.917969 C 103.492188 101.796875 103.613281 101.667969 103.730469 101.53125 C 104.167969 100.949219 104.59375 100.359375 105.035156 99.777344 C 105.164062 99.625 105.300781 99.480469 105.445312 99.347656 C 105.445312 99.566406 105.417969 99.785156 105.367188 100 Z M 106.882812 87.65625 C 106.820312 87.765625 106.742188 87.863281 106.652344 87.949219 C 106.597656 87.839844 106.554688 87.730469 106.519531 87.613281 C 106.265625 86.339844 106.09375 85.042969 105.742188 83.792969 C 105.296875 82.21875 104.703125 80.683594 104.179688 79.132812 C 104.125 78.941406 104.085938 78.75 104.050781 78.554688 C 104.234375 78.671875 104.394531 78.816406 104.53125 78.984375 C 105.167969 80.058594 105.773438 81.148438 106.390625 82.230469 C 106.46875 82.351562 106.554688 82.46875 106.648438 82.582031 C 106.6875 82.433594 106.707031 82.285156 106.714844 82.136719 C 106.503906 79.261719 105.972656 76.464844 104.785156 73.8125 C 103.738281 71.585938 102.402344 69.542969 100.785156 67.6875 C 100.667969 67.550781 100.539062 67.421875 100.429688 67.273438 C 100.378906 67.1875 100.339844 67.097656 100.3125 67 C 100.421875 67.023438 100.566406 67.011719 100.644531 67.078125 C 101.96875 68.207031 103.355469 69.28125 104.585938 70.511719 C 105.417969 71.34375 106.03125 72.402344 106.742188 73.359375 C 106.804688 73.445312 106.828125 73.5625 106.902344 73.625 C 107.039062 73.726562 107.179688 73.820312 107.328125 73.902344 C 107.40625 73.75 107.464844 73.585938 107.492188 73.417969 C 107.515625 72.660156 107.5 71.90625 107.4375 71.15625 C 107.242188 69.488281 106.8125 67.882812 106.144531 66.34375 C 106.082031 66.199219 106.003906 66.0625 105.957031 65.914062 C 105.9375 65.816406 105.929688 65.71875 105.9375 65.621094 C 106.023438 65.65625 106.132812 65.667969 106.1875 65.730469 C 108.511719 68.28125 110.285156 71.074219 110.140625 73.09375 C 109.890625 78.277344 109.351562 81.757812 107.953125 85.0625 C 107.589844 85.921875 107.246094 86.792969 106.882812 87.65625 Z M 118.398438 100.222656 C 116.746094 100.574219 115.113281 101.015625 113.472656 101.414062 C 113.375 101.445312 113.273438 101.46875 113.167969 101.480469 C 113.019531 101.488281 112.871094 101.476562 112.71875 101.472656 C 112.777344 101.335938 112.851562 101.210938 112.9375 101.09375 C 114.023438 99.828125 115.375 99 116.996094 98.605469 C 117.113281 98.5625 117.21875 98.507812 117.320312 98.433594 C 117.199219 98.398438 117.074219 98.378906 116.949219 98.371094 C 115.894531 98.460938 114.835938 98.566406 113.777344 98.652344 C 113.664062 98.652344 113.554688 98.632812 113.449219 98.597656 C 113.488281 98.507812 113.542969 98.425781 113.605469 98.351562 C 115.910156 96.453125 118.488281 95.457031 121.488281 96.164062 C 122.34375 96.394531 123.140625 96.765625 123.867188 97.273438 C 125.125 98.105469 125.523438 99.414062 125.546875 100.867188 C 125.546875 101.046875 125.546875 101.230469 125.546875 101.414062 L 125.519531 101.414062 C 125.519531 101.800781 125.535156 102.191406 125.507812 102.582031 C 125.472656 102.71875 125.410156 102.847656 125.320312 102.960938 C 125.21875 102.890625 125.128906 102.804688 125.042969 102.710938 C 124.421875 101.847656 123.625 101.199219 122.652344 100.769531 C 121.296875 100.097656 119.882812 99.914062 118.398438 100.222656 Z M 126.429688 109.164062 C 125.996094 109.84375 125.546875 110.515625 125.09375 111.179688 C 123.890625 112.898438 122.949219 114.746094 122.269531 116.730469 C 122.140625 117.125 121.996094 117.515625 121.835938 117.898438 C 121.214844 119.363281 120.234375 119.945312 118.636719 119.824219 C 117.347656 119.730469 116.433594 118.902344 116.054688 117.480469 C 115.65625 116 116.027344 115.222656 117.460938 114.648438 C 118.234375 114.339844 119.011719 114.082031 119.613281 113.4375 C 121.019531 111.925781 122.035156 110.21875 122.105469 108.117188 C 122.140625 107.085938 121.933594 106.046875 121.78125 105.019531 C 121.644531 104.164062 121.679688 103.3125 121.886719 102.464844 C 122.011719 101.96875 122.136719 101.898438 122.601562 102.128906 C 122.984375 102.304688 123.324219 102.539062 123.625 102.828125 C 124.820312 104.074219 125.53125 105.542969 125.566406 107.742188 C 125.585938 108.238281 125.273438 109.089844 124.890625 109.925781 C 124.867188 109.996094 124.847656 110.070312 124.839844 110.144531 C 124.921875 110.113281 125.027344 110.101562 125.082031 110.042969 C 125.445312 109.675781 125.796875 109.289062 126.167969 108.925781 C 126.28125 108.832031 126.40625 108.75 126.535156 108.683594 C 126.527344 108.851562 126.492188 109.011719 126.429688 109.164062 Z M 118.964844 93.015625 C 119.257812 92.335938 119.722656 92.046875 120.257812 92.1875 C 122.488281 92.304688 124.300781 93.089844 126.011719 94.109375 C 127.535156 95.019531 128.988281 96.042969 130.148438 97.410156 C 130.796875 98.175781 131.320312 99 131.367188 100.054688 C 131.398438 100.839844 131.171875 101.488281 130.511719 101.953125 C 130.066406 102.28125 129.785156 102.714844 129.667969 103.25 C 129.484375 103.867188 129.210938 104.597656 128.523438 104.972656 C 127.867188 105.332031 127.382812 105.207031 127.191406 104.492188 C 127.039062 103.832031 126.929688 103.167969 126.863281 102.492188 C 126.734375 101.542969 126.683594 100.574219 126.488281 99.636719 C 126.117188 97.882812 124.824219 96.851562 123.371094 96.027344 C 122.417969 95.488281 121.40625 95.125 120.332031 94.929688 C 119.257812 94.738281 118.183594 94.726562 117.105469 94.894531 C 117.027344 94.914062 116.953125 94.925781 116.875 94.933594 C 116.800781 94.925781 116.726562 94.90625 116.65625 94.878906 C 116.6875 94.792969 116.695312 94.664062 116.757812 94.628906 C 117.046875 94.457031 117.347656 94.304688 117.664062 94.179688 C 118.273438 93.988281 118.707031 93.597656 118.964844 93.015625 Z M 114.382812 82.984375 C 114.394531 81.160156 114.203125 79.351562 113.800781 77.570312 C 113.769531 77.472656 113.75 77.371094 113.742188 77.265625 C 113.753906 77.171875 113.773438 77.082031 113.804688 76.996094 C 113.863281 77.039062 113.917969 77.085938 113.96875 77.136719 C 114.035156 77.21875 114.09375 77.308594 114.144531 77.398438 C 115.789062 80.226562 116.988281 83.195312 116.992188 86.527344 C 117.042969 88.65625 116.457031 90.589844 115.230469 92.328125 C 114.035156 93.980469 112.679688 95.484375 111.15625 96.839844 C 111.082031 96.914062 111.003906 96.980469 110.917969 97.042969 C 110.828125 97.089844 110.734375 97.125 110.640625 97.152344 C 110.636719 97.011719 110.652344 96.875 110.683594 96.738281 C 111.445312 94.800781 112.21875 92.871094 112.976562 90.929688 C 113.972656 88.375 114.441406 85.726562 114.382812 82.984375 Z M 111.164062 84.882812 C 111.421875 84.433594 111.574219 83.925781 111.796875 83.453125 C 111.875 83.335938 111.96875 83.230469 112.078125 83.140625 C 112.117188 83.28125 112.15625 83.421875 112.199219 83.5625 C 111.914062 86.761719 111.199219 89.800781 109.347656 92.480469 C 108.964844 93.039062 108.539062 93.566406 108.121094 94.097656 C 108.058594 94.175781 107.914062 94.195312 107.8125 94.242188 C 107.804688 94.140625 107.816406 94.042969 107.839844 93.945312 C 107.996094 93.589844 108.203125 93.25 108.324219 92.882812 C 108.589844 92.09375 108.839844 91.296875 109.050781 90.492188 C 109.558594 88.546875 110.15625 86.640625 111.164062 84.882812 Z M 129.605469 56.140625 C 129.96875 56.679688 130.3125 57.230469 130.679688 57.769531 C 130.898438 58.097656 130.773438 58.289062 130.4375 58.285156 C 129.710938 58.277344 128.984375 58.226562 128.261719 58.164062 C 127.71875 58.117188 127.179688 57.980469 126.636719 57.957031 C 126.167969 57.945312 125.703125 57.984375 125.242188 58.070312 C 124.957031 58.121094 124.695312 58.226562 124.453125 58.386719 C 124.210938 58.546875 124.011719 58.75 123.851562 58.992188 C 123.695312 59.234375 123.589844 59.5 123.539062 59.785156 C 123.492188 60.070312 123.5 60.355469 123.570312 60.636719 C 123.832031 61.890625 124.4375 62.792969 125.613281 63.296875 C 126.292969 63.585938 126.878906 63.503906 127.269531 63.054688 C 127.480469 62.828125 127.605469 62.558594 127.644531 62.25 C 127.683594 61.941406 127.625 61.652344 127.476562 61.378906 C 127.328125 61.074219 127.125 60.804688 126.875 60.578125 C 126.414062 60.15625 126.007812 60.167969 125.472656 60.515625 C 125.371094 60.570312 125.261719 60.613281 125.148438 60.644531 C 125.117188 60.527344 125.105469 60.40625 125.109375 60.285156 C 125.128906 60.132812 125.175781 59.992188 125.253906 59.863281 C 125.332031 59.730469 125.433594 59.621094 125.554688 59.53125 C 125.679688 59.441406 125.8125 59.382812 125.960938 59.347656 C 126.109375 59.316406 126.257812 59.3125 126.40625 59.34375 C 127.039062 59.414062 127.546875 59.703125 127.933594 60.207031 C 128.640625 61.050781 129.5625 61.078125 130.503906 60.859375 C 130.875 60.773438 131.179688 60.414062 131.519531 60.1875 C 131.621094 60.121094 131.730469 60.082031 131.851562 60.074219 C 131.886719 60.074219 131.972656 60.265625 131.949219 60.34375 C 131.871094 60.664062 131.769531 60.980469 131.644531 61.285156 C 131.429688 61.785156 131.136719 62.25 130.960938 62.757812 C 130.472656 64.1875 129.589844 64.894531 128.078125 64.949219 C 126.976562 65.007812 125.894531 64.890625 124.832031 64.601562 C 124.269531 64.476562 123.703125 64.457031 123.136719 64.539062 C 122.382812 64.601562 121.644531 64.761719 120.894531 64.871094 C 118.632812 65.199219 117.25 64.304688 116.601562 62.097656 C 116.488281 61.722656 116.382812 61.347656 116.273438 60.972656 C 116.082031 60.234375 115.71875 59.597656 115.183594 59.058594 C 114.644531 58.519531 114.007812 58.152344 113.269531 57.957031 C 111.394531 57.371094 109.632812 56.539062 107.988281 55.460938 C 106.496094 54.484375 105.175781 53.3125 104.027344 51.953125 C 103.757812 51.640625 103.644531 51.050781 103 51.277344 C 102.960938 51.289062 102.851562 51.082031 102.765625 50.988281 C 102.738281 50.957031 102.683594 50.949219 102.640625 50.929688 C 102.621094 50.976562 102.613281 51.023438 102.613281 51.074219 C 102.632812 51.148438 102.660156 51.222656 102.691406 51.292969 C 103.523438 53.601562 104.828125 55.585938 106.792969 57.078125 C 107.46875 57.589844 108.273438 57.9375 109.015625 58.367188 C 109.109375 58.4375 109.195312 58.519531 109.273438 58.609375 C 109.160156 58.660156 109.042969 58.6875 108.921875 58.699219 C 108.613281 58.664062 108.308594 58.589844 107.996094 58.546875 C 107.9375 58.539062 107.867188 58.597656 107.800781 58.625 C 107.851562 58.671875 107.90625 58.71875 107.964844 58.761719 C 108.074219 58.839844 108.191406 58.90625 108.308594 58.980469 C 108.171875 59.039062 108.027344 59.085938 107.878906 59.113281 C 106.578125 59.230469 105.488281 58.660156 104.460938 57.984375 C 100.925781 55.65625 99.503906 51.539062 100.636719 47.507812 C 100.941406 46.433594 101.355469 45.390625 101.714844 44.332031 C 101.738281 44.242188 101.75 44.148438 101.757812 44.050781 C 101.683594 44.113281 101.613281 44.183594 101.546875 44.257812 C 99.933594 46.507812 99.109375 49.011719 99.113281 52.53125 C 99.1875 55.902344 101.195312 58.765625 104.820312 60.570312 C 104.910156 60.621094 105.019531 60.640625 105.109375 60.6875 C 105.191406 60.742188 105.273438 60.804688 105.347656 60.867188 C 105.246094 60.921875 105.144531 61.015625 105.039062 61.019531 C 103.601562 61.023438 102.253906 60.683594 100.992188 59.992188 C 97.800781 58.324219 95.742188 55.773438 95.089844 52.183594 C 94.75 50.300781 95.132812 48.503906 95.898438 46.78125 C 97.058594 44.183594 98.992188 42.308594 101.433594 40.914062 C 101.65625 40.789062 101.859375 40.632812 102.070312 40.496094 C 101.808594 40.507812 101.542969 40.503906 101.28125 40.535156 C 100.742188 40.601562 100.203125 40.707031 99.660156 40.765625 C 99.207031 40.808594 99.113281 40.683594 99.308594 40.292969 C 99.839844 39.292969 100.023438 38.234375 99.863281 37.117188 C 99.773438 36.484375 99.925781 36.371094 100.648438 36.488281 C 102.121094 36.722656 103.503906 36.472656 104.800781 35.734375 C 105.167969 35.535156 105.511719 35.300781 105.832031 35.035156 C 107.460938 33.652344 108.191406 31.960938 107.566406 29.820312 C 107.542969 29.675781 107.539062 29.53125 107.550781 29.386719 C 107.671875 29.425781 107.789062 29.464844 107.910156 29.492188 C 108.035156 29.519531 108.152344 29.53125 108.273438 29.550781 C 108.242188 29.414062 108.253906 29.234375 108.175781 29.144531 C 107.472656 28.378906 106.75 27.628906 106.03125 26.878906 C 105.945312 26.785156 105.8125 26.734375 105.730469 26.632812 C 105.609375 26.488281 105.511719 26.316406 105.40625 26.160156 C 105.578125 26.054688 105.757812 25.96875 105.945312 25.902344 C 106.945312 25.6875 107.917969 25.777344 108.859375 26.167969 C 111.839844 27.292969 114.429688 28.976562 116.382812 31.554688 C 117.609375 33.121094 118.613281 34.820312 119.398438 36.652344 C 119.757812 37.527344 119.90625 38.492188 120.113281 39.429688 C 120.113281 39.429688 120.210938 40.058594 119.96875 39.828125 C 119.757812 39.589844 119.578125 39.328125 119.429688 39.046875 C 119.0625 38.390625 118.609375 37.796875 118.074219 37.265625 C 118 37.203125 117.921875 37.140625 117.839844 37.089844 C 117.8125 37.070312 117.785156 37.054688 117.757812 37.039062 C 117.789062 37.167969 117.78125 37.328125 117.855469 37.421875 C 118.675781 38.410156 119.171875 39.542969 119.347656 40.816406 C 119.449219 41.617188 119.425781 42.417969 119.273438 43.214844 C 118.9375 44.773438 117.121094 46.15625 115.199219 44.785156 C 114.894531 44.582031 114.628906 44.335938 114.402344 44.046875 C 114.050781 43.5625 113.734375 43.058594 113.457031 42.527344 C 113.203125 42.042969 113.023438 41.523438 112.792969 41.027344 C 112.59375 40.519531 112.246094 40.144531 111.757812 39.902344 C 111.304688 39.699219 111.269531 39.714844 111.289062 40.242188 C 111.304688 40.601562 111.074219 40.546875 110.882812 40.480469 C 109.730469 40.082031 108.5625 40.226562 107.398438 40.355469 C 107.261719 40.371094 106.78125 40.230469 107.167969 40.671875 C 107.089844 40.738281 107 40.878906 106.929688 40.871094 C 106.335938 40.832031 105.757812 40.722656 105.1875 40.546875 C 104.570312 40.296875 104.027344 39.863281 103.445312 39.515625 C 103.355469 39.476562 103.257812 39.453125 103.160156 39.4375 C 103.164062 39.535156 103.136719 39.648438 103.179688 39.722656 C 104 41.09375 104.820312 42.484375 106.589844 42.808594 C 107.007812 42.878906 107.390625 43.039062 107.730469 43.296875 C 108.070312 43.554688 108.332031 43.875 108.515625 44.257812 C 109.050781 45.300781 109.925781 45.894531 110.96875 46.316406 C 111.402344 46.492188 111.820312 46.707031 112.242188 46.914062 C 112.753906 47.152344 113.144531 47.519531 113.417969 48.015625 C 113.59375 48.335938 113.820312 48.621094 114.097656 48.863281 C 115.363281 50.019531 116.351562 51.382812 117.0625 52.945312 C 117.90625 54.675781 118.707031 56.429688 119.527344 58.171875 C 119.585938 58.285156 119.652344 58.390625 119.726562 58.492188 C 119.734375 58.375 119.734375 58.257812 119.730469 58.136719 C 119.34375 54.804688 118.164062 51.78125 116.191406 49.066406 C 116.121094 48.988281 116.0625 48.902344 116.011719 48.8125 C 115.925781 48.632812 115.859375 48.445312 115.785156 48.257812 C 115.957031 48.292969 116.128906 48.3125 116.300781 48.324219 C 116.464844 48.320312 116.847656 48.355469 116.863281 48.140625 C 116.859375 47.945312 116.796875 47.769531 116.675781 47.617188 C 116.585938 47.488281 116.472656 47.375 116.488281 47.207031 C 116.515625 46.910156 117.632812 47.253906 117.769531 47.300781 C 118.324219 47.480469 118.808594 47.777344 119.21875 48.195312 C 119.875 48.863281 120.480469 49.582031 121.105469 50.277344 C 121.226562 50.414062 121.335938 50.5625 121.457031 50.695312 C 121.515625 50.746094 121.578125 50.785156 121.648438 50.820312 C 121.660156 50.734375 121.660156 50.648438 121.640625 50.566406 C 121.429688 50.089844 121.199219 49.621094 120.988281 49.144531 C 120.464844 48.035156 120.375 46.894531 120.71875 45.71875 C 121.128906 44.335938 121.351562 42.925781 121.390625 41.484375 C 121.425781 39.835938 121.0625 38.277344 120.300781 36.816406 C 119.78125 35.796875 119.289062 34.757812 118.707031 33.773438 C 118.554688 33.523438 118.390625 33.242188 118.207031 32.964844 C 118.136719 32.851562 118.035156 32.703125 117.898438 32.519531 C 117.890625 32.507812 117.882812 32.5 117.875 32.492188 C 117.269531 31.695312 116.605469 30.957031 115.882812 30.265625 C 115.40625 29.769531 114.847656 29.359375 114.371094 28.867188 C 114.246094 28.714844 114.136719 28.554688 114.039062 28.382812 C 114.230469 28.339844 114.421875 28.320312 114.621094 28.324219 C 117.0625 28.683594 119.007812 29.910156 120.515625 31.828125 C 121.964844 33.605469 122.867188 35.628906 123.222656 37.894531 C 123.351562 38.890625 123.675781 39.816406 124.191406 40.675781 C 124.839844 41.742188 124.863281 42.898438 124.605469 44.078125 C 124.53125 44.257812 124.4375 44.425781 124.3125 44.574219 C 124.191406 44.449219 124.074219 44.320312 123.949219 44.195312 C 123.875 44.117188 123.792969 44.042969 123.714844 43.964844 C 123.738281 44.0625 123.761719 44.164062 123.789062 44.261719 C 125.003906 48.574219 127.125 52.445312 129.605469 56.140625 Z M 111.976562 44.199219 C 111.964844 44.566406 111.714844 44.777344 111.289062 44.769531 C 110.578125 44.757812 109.585938 43.664062 109.664062 42.933594 C 109.726562 42.738281 109.855469 42.613281 110.046875 42.550781 C 110.820312 42.371094 112 43.398438 111.976562 44.199219 Z M 143.613281 24.109375 C 143.398438 24.800781 143.203125 25.507812 142.933594 26.183594 C 141.105469 30.734375 137.621094 33.378906 133.03125 34.75 C 131.394531 35.238281 129.71875 35.402344 127.71875 35.488281 C 126.960938 35.410156 125.902344 35.304688 124.839844 35.191406 C 124.652344 35.183594 124.484375 35.121094 124.335938 35 C 124.1875 34.878906 124.09375 34.726562 124.050781 34.542969 C 123.710938 33.296875 122.882812 32.351562 122.125 31.363281 C 122.015625 31.21875 121.875 31.09375 121.777344 30.941406 C 121.726562 30.832031 121.695312 30.71875 121.675781 30.601562 C 121.796875 30.582031 121.917969 30.574219 122.039062 30.570312 C 122.167969 30.585938 122.296875 30.609375 122.421875 30.640625 C 124.492188 31.023438 126.546875 31.5625 128.636719 31.761719 C 134.207031 32.296875 138.921875 30.660156 142.261719 25.921875 C 142.679688 25.328125 142.972656 24.652344 143.332031 24.019531 C 143.382812 23.941406 143.480469 23.890625 143.558594 23.828125 C 143.578125 23.917969 143.636719 24.027344 143.613281 24.109375 Z M 143.613281 24.109375 " fill-opacity="1" fill-rule="nonzero"/></g><path fill="#919191" d="M 78.019531 102.855469 C 75.757812 100.203125 74.113281 97.230469 73.316406 93.808594 C 73.238281 93.46875 73.121094 93.136719 73.019531 92.800781 C 73 93.160156 72.984375 93.523438 72.964844 93.886719 C 73.042969 95.515625 73.410156 97.078125 74.054688 98.574219 C 75.625 101.941406 78.054688 104.5625 81.09375 106.644531 C 81.179688 106.6875 81.269531 106.722656 81.363281 106.746094 C 81.320312 106.65625 81.269531 106.574219 81.207031 106.496094 C 80.148438 105.28125 79.066406 104.085938 78.019531 102.855469 Z M 78.019531 102.855469 " fill-opacity="1" fill-rule="nonzero"/><path fill="#919191" d="M 110.957031 48.621094 C 110.890625 48.582031 110.859375 48.523438 110.859375 48.449219 C 111.011719 47.769531 111.003906 47.695312 110.355469 47.621094 C 109.625 47.574219 108.957031 47.335938 108.359375 46.917969 C 107.757812 46.5 107.308594 45.953125 107.011719 45.285156 C 106.957031 45.199219 106.894531 45.125 106.820312 45.054688 C 106.804688 45.152344 106.796875 45.25 106.800781 45.347656 C 107.078125 46.847656 107.894531 47.925781 109.347656 48.429688 C 110.132812 48.664062 110.929688 48.859375 111.734375 49.015625 C 111.863281 48.992188 111.957031 48.976562 112.046875 48.960938 C 111.96875 48.898438 111.882812 48.847656 111.792969 48.8125 C 111.515625 48.742188 111.234375 48.695312 110.957031 48.621094 Z M 110.957031 48.621094 " fill-opacity="1" fill-rule="nonzero"/></svg>