<?xml version="1.0" encoding="utf-8"?>
<!-- Generator: Adobe Illustrator 25.2.3, SVG Export Plug-In . SVG Version: 6.00 Build 0)  -->
<svg version="1.1" id="Camada_1" xmlns="http://www.w3.org/2000/svg" xmlns:xlink="http://www.w3.org/1999/xlink" x="0px" y="0px"
	 viewBox="0 0 100 100" style="enable-background:new 0 0 100 100;" xml:space="preserve">
<style type="text/css">
	.st0{fill:#FFFFFF;}
</style>
<g>
	<g>
		<path class="st0" d="M98.1,46.7h-3.8c-1.5-9.7-10-17.2-20.2-17.2c-9.5,0-17.5,6.6-19.8,15.4c-1.3-0.7-2.8-1.1-4.3-1.1
			c-1.6,0-3.2,0.5-4.5,1.2c-2.2-8.9-10.2-15.5-19.8-15.5C15.5,29.5,7,37,5.5,46.7H1.7c-1,0-1.7,0.8-1.7,1.7c0,1,0.8,1.7,1.7,1.7h3.5
			c0.1,11.2,9.2,20.4,20.5,20.4S46.2,61.2,46.2,50c0-0.1,0-0.3,0-0.4l0.2-0.2c2-2,5.4-2,7.4,0c0,0.2,0,0.4,0,0.6
			c0,11.3,9.2,20.5,20.5,20.5s20.4-9.1,20.5-20.4h3.5c1,0,1.7-0.8,1.7-1.7C99.9,47.5,99.1,46.7,98.1,46.7z M25.6,66.5
			c-9.1,0-16.4-7.3-16.4-16.4s7.3-16.4,16.4-16.4S42.1,40.9,42.1,50S34.7,66.5,25.6,66.5z M74.2,66.5c-9.1,0-16.4-7.3-16.4-16.4
			s7.3-16.4,16.4-16.4S90.6,40.9,90.6,50S83.2,66.5,74.2,66.5z"/>
	</g>
</g>
</svg>
