<svg version="1.1" id="svg" xmlns="http://www.w3.org/2000/svg" x="0" y="0" viewBox="0 0 180 405.5" xml:space="preserve"><style>.st0{fill:#fff}.st2{fill:#5e5f5f}.st3{fill:#bf1718}.st7{fill:#111}.st8{fill:#185196}</style><path class="st0" d="M157.9 194.1c-.2-1-.8-1.9-1.4-2.9-.2-.5-.5-.9-.7-1.3-.8-1.6-.8-2.8-.8-3.9 0-.8 0-1.6-.3-2.5-.6-1.7-1.5-2.8-3.1-3.7-.3-.2-.6-.3-.9-.4v-.3c0-1.2-1-2.1-2.1-2.1s-2 .9-2 2.1v.3c-.4.1-.7.2-1 .4-1.5.9-2.5 2.1-3.1 3.7-.3.9-.3 1.7-.3 2.5 0 1.1 0 2.3-.8 3.8-.2.5-.5.9-.7 1.3-.6 1-1.2 2-1.4 2.9-.2 1 0 1.5.3 1.8.3.4.7.6 1.3.6h5c0 1.4 1.2 2.6 2.8 2.6s2.8-1.2 2.8-2.6h5.1c.5 0 1-.2 1.2-.5.1-.3.3-.8.1-1.8zm-10.6-15c0-.6.5-1.2 1.2-1.2.6 0 1.2.5 1.2 1.2v.1c-.8-.1-1.7-.1-2.5 0v-.1h.1zm1.2 19.1c-1 0-1.9-.8-1.9-1.8h3.9c-.1 1-1 1.8-2 1.8zm8.6-2.9c-.2.3-.5.3-.7.3h-15.7c-.2 0-.5-.1-.7-.3s-.2-.6-.1-1.1c.2-.9.7-1.8 1.3-2.7.2-.4.5-.9.7-1.3.9-1.7.9-3 .9-4.2 0-.8.1-1.5.3-2.2.5-1.5 1.4-2.5 2.7-3.3.6-.3 1.6-.5 2.7-.5 1 0 2 .2 2.8.6 1.3.7 2.1 1.8 2.7 3.2.3.7.3 1.4.3 2.2 0 1.1 0 2.5.9 4.2.2.5.5.9.7 1.3.6 1 1.1 1.9 1.3 2.7.1.5.1.9-.1 1.1zM179.8 194.1c-.2-1-.8-1.9-1.4-2.9-.2-.5-.5-.9-.7-1.3-.8-1.6-.8-2.8-.8-3.9 0-.8 0-1.6-.3-2.5-.6-1.7-1.5-2.8-3.1-3.7-.3-.2-.6-.3-.9-.4v-.3c0-1.2-1-2.1-2.1-2.1s-2 .9-2 2.1v.3c-.4.1-.7.2-1 .4-1.5.9-2.4 2.1-3.1 3.7-.3.9-.3 1.7-.3 2.5 0 1.1 0 2.3-.8 3.8-.2.5-.5.9-.7 1.3-.6 1-1.2 2-1.4 2.9-.2 1 0 1.5.3 1.8.3.4.7.6 1.3.6h5c0 1.4 1.2 2.6 2.7 2.6s2.7-1.2 2.7-2.6h5.1c.5 0 1-.2 1.2-.5.3-.3.5-.8.3-1.8zm-10.6-15c0-.6.5-1.2 1.2-1.2.6 0 1.2.5 1.2 1.2v.1c-.8-.1-1.7-.1-2.4 0v-.1zm1.3 19.1c-1 0-1.9-.8-1.9-1.8h3.9c-.1 1-1 1.8-2 1.8zm8.5-2.9c-.2.3-.5.3-.7.3h-15.6c-.2 0-.5-.1-.7-.3s-.2-.6-.1-1.1c.2-.9.7-1.8 1.3-2.7.2-.4.5-.9.7-1.3.9-1.7.9-3 .9-4.2 0-.8.1-1.5.3-2.2.5-1.5 1.4-2.5 2.6-3.3.6-.3 1.6-.5 2.6-.5s2 .2 2.7.6c1.3.7 2.1 1.8 2.6 3.2.3.7.3 1.4.3 2.2 0 1.1 0 2.5.9 4.2.2.5.5.9.7 1.3.6 1 1.1 1.9 1.3 2.7.4.5.4.9.2 1.1z"/><circle cx="174.1" cy="186.9" fill="#e6353c" r="5.9"/><path class="st0" d="M173.8 184.7l-1.5.7-.3-1.4 2.1-.9h1.5v7.7h-1.7v-6.1h-.1zM49.5 183l3.4 6.9 7.6 1.1-5.5 5.4 1.3 7.6-6.8-3.6-6.8 3.6 1.3-7.6-5.5-5.4 7.6-1.1zM27.5 193.5l-11.1-8.2v5.5H5.5v5.4h10.9v5.5zM79 202.7l-8.5-8.5 3-2.9 5.5 5.5 12.5-12.5 3 2.9zM124 188l-3-3-5.5 5.5-5.5-5.5-3 3 5.5 5.5-5.5 5.5 3 3 5.5-5.5 5.5 5.5 3-3-5.5-5.5zM139.8 38.7v-5-5c0-5.3.7-9.5 2.3-12.6 1.5-3 4.2-4.5 8-4.7l1.9 4c-2.1.2-3.6 1.2-4.4 3-.8 1.8-1.2 4.7-1.2 8.7h5.5v11.6h-12.1zm18.2 0v-5-5c0-5.3.7-9.5 2.3-12.6 1.5-3 4.2-4.5 8-4.7l1.9 4c-2.1.2-3.6 1.2-4.4 3-.8 1.8-1.2 4.7-1.2 8.7h5.6v11.6H158z"/><path class="st2" d="M90.1 90.8L65.6 73.2v-3.4c0-2.9 2.4-5.3 5.3-5.3H109c2.9 0 5.3 2.4 5.3 5.3v3.4L90.1 90.8zM68.6 71.6L90 87l21.3-15.3v-1.9c0-1.3-1-2.3-2.3-2.3H70.9c-1.3 0-2.3 1-2.3 2.3v1.8zm44.3.9z"/><path class="st2" d="M109.1 99.5H70.9c-1.7 0-3.2-.8-4.2-2.1l-.8-1.1L82 81.2l8.1 5.8 8.1-5.8 16 15-.8 1.1c-1 1.3-2.6 2.2-4.3 2.2zm-38.9-3.1c.2.1.5.1.7.1H109c.3 0 .5 0 .8-.1l-12-11.2-7.8 5.6-7.8-5.6-12 11.2z"/><path class="st2" d="M109.1 99.5H70.9c-2.9 0-5.3-2.4-5.3-5.3V69.8c0-2.9 2.4-5.3 5.3-5.3H109c2.9 0 5.3 2.4 5.3 5.3v24.3c.1 3-2.3 5.4-5.2 5.4zm-38.2-32c-1.3 0-2.3 1-2.3 2.3v24.3c0 1.3 1 2.3 2.3 2.3H109c1.3 0 2.3-1 2.3-2.3V69.8c0-1.3-1-2.3-2.3-2.3H70.9zM159.7 109.1h-19.3c-3.5 0-6.3-2.8-6.3-6.3V61.2c0-3.5 2.8-6.3 6.3-6.3h19.4c3.5 0 6.2 2.8 6.2 6.3v41.6c-.1 3.5-2.9 6.3-6.3 6.3zm-19.3-51.2c-1.8 0-3.3 1.5-3.3 3.3v41.6c0 1.8 1.5 3.3 3.3 3.3h19.3c1.8 0 3.3-1.5 3.3-3.3V61.2c0-1.9-1.4-3.3-3.2-3.3h-19.4z"/><path class="st2" d="M153.7 59.4h2.1c.4 0 .8.3.8.8s-.3.8-.8.8h-2.1c-.4 0-.8-.3-.8-.8s.4-.8.8-.8zM144.4 59.4h6.3c.4 0 .8.3.8.8s-.3.8-.8.8h-6.3c-.4 0-.8-.3-.8-.8s.4-.8.8-.8z"/><circle class="st2" cx="150.2" cy="102.1" r="2.1"/><path class="st2" d="M157 98.1h-13.9c-2 0-3.6-1.8-3.6-3.9V67.6c0-2.2 1.6-3.9 3.6-3.9H157c2 0 3.6 1.8 3.6 3.9v26.6c0 2.1-1.6 3.9-3.6 3.9zm-13.9-31.4c-.4 0-.6.4-.6.9v26.6c0 .5.3.9.6.9H157c.4 0 .6-.4.6-.9V67.6c0-.5-.3-.9-.6-.9h-13.9z"/><g><path class="st3" d="M90.1 150.6L65.6 133v-3.4c0-2.9 2.4-5.3 5.3-5.3H109c2.9 0 5.3 2.4 5.3 5.3v3.4l-24.2 17.6zm-21.5-19.1L90 146.9l21.3-15.3v-1.9c0-1.3-1-2.3-2.3-2.3H70.9c-1.3 0-2.3 1-2.3 2.3v1.8zm44.3.9z"/><path class="st3" d="M109.1 159.3H70.9c-1.7 0-3.2-.8-4.2-2.1l-.8-1.1 16.1-15 8.1 5.8 8.1-5.8 16 15-.8 1.1c-1 1.3-2.6 2.1-4.3 2.1zm-38.9-3.1c.2.1.5.1.7.1H109c.3 0 .5 0 .8-.1l-12-11.2-7.8 5.6-7.8-5.6-12 11.2z"/><path class="st3" d="M109.1 159.3H70.9c-2.9 0-5.3-2.4-5.3-5.3v-24.3c0-2.9 2.4-5.3 5.3-5.3H109c2.9 0 5.3 2.4 5.3 5.3V154c.1 3-2.3 5.3-5.2 5.3zm-38.2-31.9c-1.3 0-2.3 1-2.3 2.3V154c0 1.3 1 2.3 2.3 2.3H109c1.3 0 2.3-1 2.3-2.3v-24.3c0-1.3-1-2.3-2.3-2.3H70.9z"/></g><g><path class="st3" d="M159.7 169h-19.3c-3.5 0-6.3-2.8-6.3-6.3v-41.6c0-3.5 2.8-6.3 6.3-6.3h19.4c3.5 0 6.2 2.8 6.2 6.3v41.6c-.1 3.4-2.9 6.3-6.3 6.3zm-19.3-51.2c-1.8 0-3.3 1.5-3.3 3.3v41.6c0 1.8 1.5 3.3 3.3 3.3h19.3c1.8 0 3.3-1.5 3.3-3.3v-41.6c0-1.9-1.4-3.3-3.2-3.3h-19.4z"/><path class="st3" d="M153.7 119.3h2.1c.4 0 .8.3.8.8s-.3.8-.8.8h-2.1c-.4 0-.8-.3-.8-.8s.4-.8.8-.8zM144.4 119.3h6.3c.4 0 .8.3.8.8s-.3.8-.8.8h-6.3c-.4 0-.8-.3-.8-.8s.4-.8.8-.8z"/><circle class="st3" cx="150.2" cy="162" r="2.1"/><path class="st3" d="M157 158h-13.9c-2 0-3.6-1.8-3.6-3.9v-26.6c0-2.2 1.6-3.9 3.6-3.9H157c2 0 3.6 1.8 3.6 3.9V154c0 2.2-1.6 4-3.6 4zm-13.9-31.5c-.4 0-.6.4-.6.9V154c0 .5.3.9.6.9H157c.4 0 .6-.4.6-.9v-26.6c0-.5-.3-.9-.6-.9h-13.9z"/></g><g><path d="M10.2 164.4c-.7 0-1.3-.3-1.8-.8-.7-.7-.9-1.7-.6-2.6l2.8-8.4c-1.9-3.2-2.9-6.9-2.9-10.8v-1c.5-11.9 10.3-21.2 22.3-21.2 12.2 0 22 9.4 22.3 21.5v.7c0 12.2-10 22.1-22.2 22.1-3.7 0-7.1-.8-10.3-2.5l-8.8 2.8c-.3.1-.5.2-.8.2zM30 122.6c-10.4 0-18.8 8-19.2 18.3v.9c0 3.5 1 7 2.8 9.8l.4.6-3 8.9 9.2-2.9.6.3c2.8 1.6 6 2.4 9.4 2.4 10.6 0 19.2-8.6 19.2-19.1v-.7c-.4-10.3-8.9-18.5-19.4-18.5z" fill="#65b55e"/><path d="M41.6 149.9c-.5 1.2-2.8 2.5-3.8 2.6-.9.2-.9.9-6.8-1.4-5.8-2.2-9.4-8.1-9.7-8.4-.2-.3-1.4-1.8-2-3.8-.2-.6-.3-1.2-.3-1.8 0-2.8 1.5-4.1 2-4.8.6-.6 1.2-.8 1.5-.8h1.1c.3 0 .8-.2 1.2.9.5 1.1 1.5 3.8 1.7 4.1.2.2.2.6 0 .9-.2.2-.2.5-.3.6 0 .2-.2.2-.2.3l-.9.9c-.3.2-.6.5-.3 1.1.3.5 1.4 2.3 3.1 3.8 2.2 1.8 4 2.5 4.6 2.8.6.3.9.2 1.2-.2.3-.3 1.5-1.5 1.8-2.2.3-.6.8-.5 1.2-.3.5.2 3.2 1.5 3.8 1.8.5.3.9.5 1.2 1.1.4.3.4 1.4-.1 2.8z" fill-rule="evenodd" clip-rule="evenodd" fill="#65b55e"/></g><g><path class="st2" d="M10.2 104.4c-.7 0-1.3-.3-1.8-.8-.7-.7-.9-1.7-.6-2.6l2.8-8.4c-1.9-3.2-2.9-6.9-2.9-10.8v-1C8.2 68.9 18 59.6 30 59.6c12.2 0 22 9.4 22.3 21.5v.7c0 12.2-10 22.1-22.2 22.1-3.7 0-7.1-.8-10.3-2.5l-8.8 2.8c-.3.1-.5.2-.8.2zM30 62.6c-10.4 0-18.8 8-19.2 18.3v.9c0 3.5 1 7 2.8 9.8l.4.6-3 8.9 9.2-2.9.6.3c2.8 1.6 6 2.4 9.4 2.4 10.6 0 19.2-8.6 19.2-19.1v-.7C49 70.8 40.5 62.6 30 62.6z"/><path d="M41.6 89.9c-.5 1.2-2.8 2.5-3.8 2.6-.9.2-.9.9-6.8-1.4-5.8-2.2-9.4-8.1-9.7-8.4-.2-.3-1.4-1.8-2-3.8-.2-.6-.3-1.2-.3-1.8 0-2.8 1.5-4.1 2-4.8.6-.6 1.2-.8 1.5-.8h1.1c.3 0 .8-.2 1.2.9.5 1.1 1.5 3.8 1.7 4.1.2.2.2.6 0 .9-.2.2-.2.5-.3.6 0 .2-.2.2-.2.3l-.9.9c-.3.2-.6.5-.3 1.1.3.5 1.4 2.3 3.1 3.8 2.2 1.8 4 2.5 4.6 2.8.6.3.9.2 1.2-.2.3-.3 1.5-1.5 1.8-2.2.3-.6.8-.5 1.2-.3.5.2 3.2 1.5 3.8 1.8.5.3.9.5 1.2 1.1.4.3.4 1.4-.1 2.8z" fill-rule="evenodd" clip-rule="evenodd" fill="#5e5f5f"/></g><g><path class="st2" d="M5.1 368.3c.8 0 1.4-.6 1.4-1.4v-6.6c0-1.6 1.3-2.9 2.9-2.9h7.4c1.6 0 2.9 1.3 2.9 2.9v5.1c0 .8.6 1.4 1.4 1.4s1.4-.6 1.4-1.4v-5.1c0-2.5-1.6-4.6-3.9-5.3.8-1 1.3-2.3 1.3-3.8 0-3.4-2.8-6.2-6.2-6.2s-6.2 2.8-6.2 6.2c0 1.3.4 2.5 1.1 3.6-2.7.4-4.7 2.7-4.7 5.5v6.6c-.2.8.4 1.4 1.2 1.4zm8.4-20.6c1.9 0 3.5 1.6 3.5 3.5s-1.6 3.5-3.5 3.5-3.5-1.6-3.5-3.5 1.6-3.5 3.5-3.5zM36.9 366.8c.8 0 1.4-.6 1.4-1.4v-5.1c0-1.6 1.3-2.9 2.9-2.9h7.4c1.6 0 2.9 1.3 2.9 2.9v5.1c0 .8.6 1.4 1.4 1.4.8 0 1.4-.6 1.4-1.4v-5.1c0-2.5-1.6-4.6-3.9-5.3.8-1 1.3-2.3 1.3-3.8 0-3.4-2.8-6.2-6.2-6.2s-6.2 2.8-6.2 6.2c0 1.3.4 2.5 1.1 3.6-2.7.4-4.7 2.7-4.7 5.5v5.1c-.2.7.4 1.4 1.2 1.4zm8.5-19.1c1.9 0 3.5 1.6 3.5 3.5s-1.6 3.5-3.5 3.5-3.5-1.6-3.5-3.5 1.5-3.5 3.5-3.5zM82.1 355c.8-1 1.3-2.3 1.3-3.8 0-3.4-2.8-6.2-6.2-6.2-3.4 0-6.2 2.8-6.2 6.2 0 1.3.4 2.5 1.1 3.6-2.7.4-4.7 2.7-4.7 5.5v5.1c0 .8.6 1.4 1.4 1.4s1.4-.6 1.4-1.4v-5.1c0-1.6 1.3-2.9 2.9-2.9h7.4c1.6 0 2.9 1.3 2.9 2.9v6.6c0 .8.6 1.4 1.4 1.4s1.4-.6 1.4-1.4v-6.6c-.2-2.5-1.8-4.6-4.1-5.3zm-4.9-7.3c1.9 0 3.5 1.6 3.5 3.5s-1.6 3.5-3.5 3.5-3.5-1.6-3.5-3.5 1.6-3.5 3.5-3.5zM18.5 393.2c.8-1 1.3-2.3 1.3-3.8 0-3.4-2.8-6.2-6.2-6.2s-6.2 2.8-6.2 6.2c0 1.3.4 2.5 1.1 3.6-2.7.4-4.7 2.7-4.7 5.5v5.1c0 .8.6 1.4 1.4 1.4s1.4-.6 1.4-1.4v-5.1c0-1.6 1.3-2.9 2.9-2.9h7.4c1.6 0 2.9 1.3 2.9 2.9v5.1c0 .8.6 1.4 1.4 1.4s1.4-.6 1.4-1.4v-5.1c-.3-2.5-1.9-4.6-4.1-5.3zm-5-7.3c1.9 0 3.5 1.6 3.5 3.5s-1.6 3.5-3.5 3.5-3.5-1.6-3.5-3.5 1.6-3.5 3.5-3.5zM50.3 393.2c.8-1 1.3-2.3 1.3-3.8 0-3.4-2.8-6.2-6.2-6.2s-6.2 2.8-6.2 6.2c0 1.3.4 2.5 1.1 3.6-2.7.4-4.7 2.7-4.7 5.5v5.1c0 .8.6 1.4 1.4 1.4.8 0 1.4-.6 1.4-1.4v-5.1c0-1.6 1.3-2.9 2.9-2.9h7.4c1.6 0 2.9 1.3 2.9 2.9v5.1c0 .8.6 1.4 1.4 1.4.8 0 1.4-.6 1.4-1.4v-5.1c-.2-2.5-1.9-4.6-4.1-5.3zm-4.9-7.3c1.9 0 3.5 1.6 3.5 3.5s-1.6 3.5-3.5 3.5-3.5-1.6-3.5-3.5 1.5-3.5 3.5-3.5zM82.1 393.2c.8-1 1.3-2.3 1.3-3.8 0-3.4-2.8-6.2-6.2-6.2-3.4 0-6.2 2.8-6.2 6.2 0 1.3.4 2.5 1.1 3.6-2.7.4-4.7 2.7-4.7 5.5v5.1c0 .8.6 1.4 1.4 1.4s1.4-.6 1.4-1.4v-5.1c0-1.6 1.3-2.9 2.9-2.9h7.4c1.6 0 2.9 1.3 2.9 2.9v5.1c0 .8.6 1.4 1.4 1.4s1.4-.6 1.4-1.4v-5.1c-.2-2.5-1.8-4.6-4.1-5.3zm-4.9-7.3c1.9 0 3.5 1.6 3.5 3.5s-1.6 3.5-3.5 3.5-3.5-1.6-3.5-3.5 1.6-3.5 3.5-3.5zM35.9 384.7c0 .8.6 1.4 1.4 1.4.8 0 1.4-.6 1.4-1.4v-5.4c0-2.5-1.6-4.6-3.9-5.3.8-1 1.3-2.3 1.3-3.8 0-3.4-2.8-6.2-6.2-6.2s-6.2 2.8-6.2 6.2c0 1.3.4 2.5 1.1 3.6-2.7.4-4.7 2.7-4.7 5.5v5.5c0 .8.6 1.4 1.4 1.4s1.4-.6 1.4-1.4v-5.5c0-1.6 1.3-2.9 2.9-2.9H33c1.6 0 2.9 1.3 2.9 2.9v5.4zm-6.1-17.9c1.9 0 3.5 1.6 3.5 3.5s-1.6 3.5-3.5 3.5-3.5-1.6-3.5-3.5c0-2 1.6-3.5 3.5-3.5zM68.3 386.2c.8 0 1.4-.6 1.4-1.4v-5.5c0-2.5-1.6-4.6-3.9-5.3.8-1 1.3-2.3 1.3-3.8 0-3.4-2.8-6.2-6.2-6.2-3.4 0-6.2 2.8-6.2 6.2 0 1.3.4 2.5 1.1 3.6-2.7.4-4.7 2.7-4.7 5.5v5.4c0 .8.6 1.4 1.4 1.4.8 0 1.4-.6 1.4-1.4v-5.4c0-1.6 1.3-2.9 2.9-2.9h7.4c1.6 0 2.9 1.3 2.9 2.9v5.5c-.1.8.5 1.4 1.2 1.4zm-7.4-19.5c1.9 0 3.5 1.6 3.5 3.5s-1.6 3.5-3.5 3.5-3.5-1.6-3.5-3.5 1.6-3.5 3.5-3.5z"/></g><g><path class="st2" d="M86.1 272.7l-14.8-14.8c2.7-3.1 4.3-7.1 4.3-11.4 0-4.2-1.5-8-3.9-10.9l6.5-6c.7.4 1.4.6 2.2.6 2.6 0 4.7-2.1 4.7-4.7s-2.1-4.7-4.7-4.7-4.7 2.1-4.7 4.7c0 .8.2 1.6.6 2.3l-6.4 5.9c-3.1-2.8-7.1-4.5-11.6-4.5-6 0-11.2 3-14.3 7.6l-5.4-2.8c.1-.3.1-.6.1-.9 0-2.6-2.1-4.7-4.7-4.7s-4.7 2.1-4.7 4.7c0 1.2.5 2.4 1.3 3.2l-16.5 25.3c-.2 0-.5-.1-.8-.1-2.6 0-4.7 2.1-4.7 4.7s2.1 4.7 4.7 4.7 4.7-2.1 4.7-4.7c0-1.4-.6-2.6-1.5-3.5l16.4-25.1c.4.1.7.2 1.1.2 1.3 0 2.5-.6 3.4-1.5l5.3 2.8c-1.1 2.2-1.7 4.7-1.7 7.4 0 9.6 7.8 17.3 17.3 17.3 4.2 0 8.1-1.5 11.1-4l14.8 14.8c.3.3.6.4.9.4s.7-.1.9-.4c.6-.5.6-1.4.1-1.9zm-72.8-4.5c-1.1 0-2-.9-2-2s.9-2 2-2 2 .9 2 2-.9 2-2 2zM34 235.1c-1.1 0-2-.9-2-2s.9-2 2-2 2 .9 2 2-.9 2-2 2zm46.4-11.8c1.1 0 2 .9 2 2s-.9 2-2 2-2-.9-2-2c-.1-1 .9-2 2-2zm-22.1 8.5c3.7 0 7 1.4 9.6 3.6l-6.7 6.3c-.8-.6-1.8-1-2.9-1-1.5 0-2.8.7-3.6 1.7l-8.3-4.4c2.6-3.7 7-6.2 11.9-6.2zm-14.6 14.7c0-2.2.5-4.3 1.4-6.1l8.6 4.6c0 .2-.1.3-.1.5 0 2.6 2.1 4.7 4.7 4.7s4.7-2.1 4.7-4.7c0-.5-.1-1-.3-1.5l7-6.5c2 2.5 3.2 5.7 3.2 9.1 0 8.1-6.6 14.7-14.7 14.7-8-.2-14.5-6.7-14.5-14.8zM25.3 225.9c0-6-4.9-10.9-10.9-10.9s-10.9 4.9-10.9 10.9 4.9 10.9 10.9 10.9 10.9-4.9 10.9-10.9zm-19.2 0c0-4.6 3.7-8.3 8.3-8.3s8.3 3.7 8.3 8.3-3.7 8.3-8.3 8.3-8.3-3.7-8.3-8.3z"/><path class="st2" d="M15.6 231.6v-1.2c.6-.2 1.1-.5 1.5-.9.5-.5.7-1.2.7-2 0-.3 0-.6-.1-.9-.1-.3-.2-.6-.4-.8-.2-.2-.3-.4-.5-.5-.2-.2-.4-.3-.7-.4-.3-.1-.5-.2-.6-.3s-.3-.1-.6-.3c-.2-.1-.4-.1-.5-.2-.1 0-.2-.1-.4-.2s-.3-.1-.3-.2c-.1 0-.1-.1-.1-.2v-.2c0-.2.1-.4.2-.4.1-.1.3-.2.6-.2.5 0 .9.2 1.1.7l.1.3 2-.7-.1-.3c-.1-.5-.4-1-.8-1.3-.3-.3-.7-.5-1.1-.7v-1.1h-2.1v1.1c-.6.2-1.1.4-1.4.9-.4.5-.6 1-.6 1.7 0 .4.1.7.2 1 .1.3.3.5.4.7.2.2.4.4.7.5.3.2.5.3.7.4.2.1.4.2.7.3s.5.2.7.3c.1.1.3.1.5.3.1.1.3.2.3.3.1.1.1.2.1.4 0 .3-.1.5-.3.6-.4.3-1.1.3-1.6-.1-.3-.2-.5-.5-.6-.8l-.1-.3-2 .7.1.3c.2.6.5 1.1 1 1.6.4.4.8.6 1.4.8v1.2l1.9.1z"/></g><g><path class="st2" d="M59.6 285.8H29.9c-1.6 0-2.9 1.3-2.9 2.9v14.8c0 1.6 1.3 2.9 2.9 2.9h29.6c1.6 0 2.9-1.3 2.9-2.9v-14.8c.1-1.6-1.2-2.9-2.8-2.9zm.2 17.6c0 .1-.1.2-.2.2H29.9c-.1 0-.2-.1-.2-.2v-14.8c0-.1.1-.2.2-.2h29.6c.1 0 .2.1.2.2l.1 14.8zM32.8 313.1h23.3c.7 0 1.3-.6 1.3-1.3s-.6-1.3-1.3-1.3H32.8c-.7 0-1.3.6-1.3 1.3s.5 1.3 1.3 1.3zM32.8 319.2h18.4c.7 0 1.3-.6 1.3-1.3s-.6-1.3-1.3-1.3H32.8c-.7 0-1.3.6-1.3 1.3s.5 1.3 1.3 1.3z"/><path class="st2" d="M84.6 285.8H71.1c-.1 0-.3 0-.4.1V283c0-1.6-1.3-2.9-2.9-2.9H21.9c-1.6 0-2.9 1.3-2.9 2.9v2.9H5.4c-1.8 0-3.3 1.3-3.3 2.9v42.7c0 1.6 1.5 2.9 3.3 2.9h13.7v2.9c0 1.6 1.3 2.9 2.9 2.9h45.8c1.6 0 2.9-1.3 2.9-2.9v-2.9c.1 0 .3.1.4.1h13.6c1.8 0 3.3-1.3 3.3-2.9v-42.7c-.1-1.8-1.5-3.1-3.4-3.1zm-65.7 45.8H5.4c-.4 0-.6-.2-.6-.2v-42.6c0-.1.3-.3.6-.3h13.7v10.9H9.7c-.7 0-1.3.6-1.3 1.3 0 .7.6 1.3 1.3 1.3H19v1.7H11.6c-.7 0-1.3.6-1.3 1.3s.6 1.3 1.3 1.3H19v25.2c0 .1 0 .1-.1.1zm49.1 5.5c0 .1-.1.2-.2.2H21.9c-.1 0-.2-.1-.2-.2v-54.2c0-.1.1-.2.2-.2h45.8c.1 0 .2.1.2.2v54.2h.1zm16.6-5.5H71.1c-.1 0-.3 0-.4.1v-25.4c.1 0 .3.1.4.1h7.3c.7 0 1.3-.6 1.3-1.3s-.6-1.3-1.3-1.3h-7.3c-.1 0-.3 0-.4.1V302c.1 0 .3.1.4.1h9.2c.7 0 1.3-.6 1.3-1.3 0-.7-.6-1.3-1.3-1.3h-9.2c-.1 0-.3 0-.4.1v-11c.1 0 .3.1.4.1h13.6c.4 0 .6.2.6.2v42.6c0-.1-.3.1-.7.1z"/><path class="st2" d="M56.1 324.6l-23.3-.2c-.7 0-1.3.6-1.3 1.3 0 .7.6 1.3 1.3 1.3l23.3.2c.7 0 1.3-.6 1.3-1.3 0-.7-.6-1.3-1.3-1.3zM51.2 330.7l-18.4-.1c-.7 0-1.3.6-1.3 1.3 0 .7.6 1.3 1.3 1.3l18.4.1c.7 0 1.3-.6 1.3-1.3 0-.7-.6-1.3-1.3-1.3zM48.1 295l-5.6-3.4c-.5-.2-1.1-.2-1.5.1-.4.2-.6.6-.6 1v6.8c0 .4.2.8.6 1 .3.2.5.2.8.2.2 0 .5-.1.7-.2l5.5-3.4c.5-.2.8-.6.8-1.1 0-.4-.3-.8-.7-1zM28.3 319.7c1 0 1.7-.8 1.7-1.7 0-1-.8-1.7-1.7-1.7-1 0-1.7.8-1.7 1.7 0 .9.8 1.7 1.7 1.7zM28.3 313.3c1 0 1.7-.8 1.7-1.7 0-1-.8-1.7-1.7-1.7-1 0-1.7.8-1.7 1.7 0 .9.8 1.7 1.7 1.7zM28.3 330.4c-1 0-1.7.8-1.7 1.7 0 1 .8 1.7 1.7 1.7.5 0 .9-.2 1.2-.5.3-.3.5-.8.5-1.2 0-.5-.2-.9-.5-1.2s-.7-.5-1.2-.5zM28.4 324s-.1 0 0 0c-1 0-1.7.8-1.7 1.7 0 1 .8 1.7 1.7 1.7.5 0 .9-.2 1.2-.5.3-.3.5-.8.5-1.2 0-.5-.2-.9-.5-1.2-.3-.3-.8-.5-1.2-.5z"/></g><g><path class="st7" d="M56.7 3.4c-.4 0-.7.3-.7.7 0 .4.3.7.7.7.4 0 .7-.3.7-.7-.1-.4-.4-.7-.7-.7zM48.3 3.4c-.4 0-.7.3-.7.7 0 .4.3.7.7.7.4 0 .7-.3.7-.7 0-.4-.3-.7-.7-.7zM24.1 5.7c-1.8 0-3.3 1.4-3.3 3.3s1.4 3.3 3.4 3.3c1 0 1.9-.4 2.5-1.1l-.7-.8c-.4.5-1 .7-1.8.7-1.1 0-1.9-.7-2.1-1.7h5c.1-.3.1-.5.1-.6-.1-1.8-1.3-3.1-3.1-3.1zm-2 2.7c.2-1 1-1.6 2-1.6s1.7.6 1.8 1.6h-3.8zM35.8 5.7c-.9 0-1.7.4-2.2 1.1-.4-.7-1.2-1.1-2.1-1.1-.8 0-1.5.3-1.9.9v-.9h-1.2v6.6h1.2v-4c0-.9.7-1.5 1.6-1.5.9 0 1.5.6 1.5 1.5v4H34V8.1c.1-.8.7-1.3 1.6-1.3.9 0 1.5.6 1.5 1.5v4h1.2V8.1c-.1-1.5-1.1-2.4-2.5-2.4zM43.2 5.7c-.9 0-1.7.4-2.1 1v-1h-1.2v9.5h1.2v-3.8c.5.6 1.2 1 2.1 1 1.7 0 3.1-1.4 3.1-3.3 0-2-1.3-3.4-3.1-3.4zm-.2 5.5c-1.2 0-2-.9-2-2.2 0-1.3.8-2.2 2-2.2s2 .9 2 2.2c.1 1.3-.8 2.2-2 2.2zM47.7 5.7h1.2v6.6h-1.2zM56.1 5.7h1.2v6.6h-1.2zM53.6 5.7c-.8 0-1.4.3-1.7.9v-.9h-1.2v6.6h1.2V8.5c0-1.2.6-1.7 1.5-1.7.4 0 .7.1 1 .4l.8-.8c-.4-.5-.9-.7-1.6-.7zM61.8 6.8c.7 0 1.2.2 1.6.7l.8-.8c-.6-.7-1.5-1.1-2.5-1.1-1.9 0-3.3 1.4-3.3 3.3s1.4 3.3 3.3 3.3c1 0 1.9-.4 2.5-1.1l-.8-.8c-.4.5-1 .7-1.7.7-1.2 0-2.1-.9-2.1-2.2.1-1.1 1-2 2.2-2zM69.6 9.5c0 1.1-.6 1.7-1.5 1.7-1 0-1.5-.6-1.5-1.7V5.7h-1.2v3.8c0 1.6 1.1 2.8 2.7 2.8s2.7-1.1 2.7-2.8V5.7h-1.2v3.8zM73.3 7.5c0-.4.4-.7 1.1-.7.7 0 1.2.3 1.6.7l.8-.8c-.5-.7-1.3-1-2.3-1-1.4 0-2.3.7-2.3 1.9 0 2.3 3.4 1.5 3.4 2.9 0 .5-.4.7-1.2.7-.7 0-1.4-.3-1.8-.8l-.8.8c.6.7 1.5 1.2 2.6 1.2 1.4 0 2.3-.7 2.3-1.9 0-2.5-3.4-1.8-3.4-3zM16.2 0H1.8C.8 0 0 .8 0 1.8v14.4c0 1 .8 1.8 1.8 1.8h14.4c1 0 1.8-.8 1.8-1.8V1.8c0-1-.8-1.8-1.8-1.8zm-1.9 12.2c-1.1 1.8-3 3-5.3 3-3.4 0-6.2-2.8-6.2-6.2 0-3.4 2.8-6.2 6.2-6.2 2.2 0 4.2 1.2 5.3 3v.1l-1.5.8h-.1c-.7-1.2-2.1-2-3.6-2-2.3 0-4.2 1.9-4.3 4.2v.2c0 2.3 1.9 4.2 4.3 4.2 1.5 0 2.9-.8 3.6-2 0 0 .1-.1.1 0l1.5.8v.1zm.8-2.3c0 .1-.1.1-.1.1H6.8c-.1 0-.1 0-.1-.1 0-.3-.1-.6-.1-.9 0-.3 0-.6.1-.9 0 0 0-.1.1-.1H15c.1 0 .1 0 .1.1 0 .3.1.6.1.9 0 .3-.1.6-.1.9z"/><path class="st0" d="M15.2 9c0 .3 0 .6-.1.9 0 .1-.1.1-.1.1H6.8c-.1 0-.1 0-.1-.1 0-.3-.1-.6-.1-.9 0-.3 0-.6.1-.9 0 0 0-.1.1-.1H15c.1 0 .1 0 .1.1 0 .3.1.6.1.9z"/><path class="st0" d="M14.3 12.2c-1.1 1.8-3 3-5.3 3-3.4 0-6.2-2.8-6.2-6.2 0-3.4 2.8-6.2 6.2-6.2 2.2 0 4.2 1.2 5.3 3v.1l-1.5.8h-.1c-.7-1.2-2.1-2-3.6-2-2.3 0-4.2 1.9-4.3 4.2v.2c0 2.3 1.9 4.2 4.3 4.2 1.5 0 2.9-.8 3.6-2 0 0 .1-.1.1 0l1.5.8v.1z"/><g><path class="st8" d="M47.2 15.5h.5V18h-.5v-2.5zM48.4 15.5h.3l1.2 1.6v-1.6h.5V18h-.3l-1.2-1.6V18h-.5v-2.5zM51 15.5h.5l.6 1.7.7-1.7h.5l-1 2.4h-.4l-.9-2.4zM53.8 15.5h1.7v.4h-1.2v.6h1.1v.4h-1.1v.6h1.2v.5h-1.7v-2.5zM55.9 17.6l.3-.3c.1.2.3.3.6.3.2 0 .4-.1.4-.3 0-.5-1.2-.3-1.2-1.1 0-.4.4-.7.8-.7.3 0 .6.1.8.3l-.3.3c-.1-.2-.3-.2-.5-.2s-.4.1-.4.2c0 .5 1.2.2 1.2 1.1 0 .5-.3.7-.9.7-.3.1-.6 0-.8-.3zM58.8 15.9H58v-.4h2v.4h-.8v2h-.5v-2zM60.5 15.5h.5V18h-.5v-2.5zM61.7 15.5h.3l.9 1.4.9-1.4h.3V18h-.5v-1.5l-.6 1h-.3l-.6-1V18h-.5v-2.5zM64.9 15.5h1.7v.4h-1.2v.6h1.1v.4h-1.1v.6h1.2v.5h-1.7v-2.5zM67.2 15.5h.3l1.2 1.6v-1.6h.5V18h-.3l-1.2-1.6V18h-.5v-2.5zM70.5 15.9h-.8v-.4h2v.4H71v2h-.5v-2zM72 16.7c0-.7.5-1.3 1.3-1.3.7 0 1.3.5 1.3 1.3 0 .7-.6 1.3-1.3 1.3-.7 0-1.3-.6-1.3-1.3zm2.1 0c0-.5-.3-.8-.8-.8s-.8.3-.8.8.3.8.8.8c.5.1.8-.3.8-.8zM74.9 17.6l.3-.3c.1.2.3.3.6.3.2 0 .4-.1.4-.3 0-.5-1.2-.3-1.2-1.1 0-.4.4-.7.8-.7.3 0 .6.1.8.3l-.3.3c-.1-.2-.3-.2-.5-.2s-.4.1-.4.2c0 .5 1.2.2 1.2 1.1 0 .5-.3.7-.9.7-.3.1-.6 0-.8-.3z"/></g></g></svg>